<svg width="240" height="56" viewBox="0 0 240 56" fill="none" xmlns="http://www.w3.org/2000/svg">
<g clip-path="url(#clip0_31699_7483)">
<path d="M135.019 17.0787C134.929 17.0787 134.84 17.0112 134.84 16.8989V14.809C134.84 14.7191 134.907 14.6292 135.019 14.6292H141.154C141.581 14.6292 141.851 14.9663 141.851 15.3034C141.851 15.3034 141.873 15.6629 141.851 16.0225C141.738 20.1798 139.177 23.1011 135.064 23.1011C130.952 23.1011 127.873 19.7753 127.873 15.5955C127.873 11.4157 130.974 8 135.132 8C138.39 8 140.12 10.0674 140.233 10.1348C140.3 10.2022 140.3 10.3146 140.233 10.382L138.682 12.0225C138.615 12.0899 138.503 12.0899 138.435 12.0225C138.345 11.9326 137.154 10.5393 135.154 10.5393C132.435 10.5393 130.57 12.8315 130.57 15.5506C130.57 18.2697 132.458 20.4944 135.109 20.4944C137.222 20.4944 138.75 19.3708 139.109 17.5281C139.109 17.4607 139.132 17.4382 139.132 17.3933C139.132 17.191 138.974 17.0337 138.772 17.0337L135.019 17.0787ZM146.952 22.9888C144.974 22.9888 143.469 21.5281 143.469 18.9438V12.8764C143.469 12.7865 143.536 12.6966 143.649 12.6966H145.918C146.008 12.6966 146.098 12.764 146.098 12.8764V18.3146C146.098 19.9101 146.795 20.6742 148.098 20.6742C149.401 20.6742 150.188 19.8427 150.188 18.3146V12.8539C150.188 12.764 150.255 12.6742 150.368 12.6742H152.637C152.727 12.6742 152.817 12.7416 152.817 12.8539V22.6292C152.817 22.7191 152.75 22.809 152.637 22.809H150.547C150.458 22.809 150.368 22.7191 150.368 22.6292V20.8315C150.368 20.7416 150.3 20.6517 150.188 20.6517C150.076 20.6517 150.031 20.7191 150.008 20.809C149.761 21.6629 148.974 22.9888 146.952 22.9888ZM71.2441 12.427C68.3003 12.427 65.9182 14.809 65.9182 17.7528C65.9182 20.6966 68.3003 23.0787 71.2441 23.0787C74.1879 23.0787 76.5699 20.6966 76.5699 17.7528C76.5699 14.809 74.1879 12.427 71.2441 12.427ZM71.2441 20.5843C69.716 20.5843 68.48 19.3034 68.48 17.7303C68.48 16.1573 69.716 14.8764 71.2441 14.8764C72.7722 14.8764 74.0081 16.1573 74.0081 17.7303C74.0081 19.3034 72.7947 20.5843 71.2441 20.5843ZM63.8508 14.9438C63.2216 14.9438 62.5699 15.2584 62.2104 16C61.9632 16.5169 61.8733 17.236 61.8733 18.2022V22.6292C61.8733 22.7191 61.7834 22.809 61.6935 22.809H59.4239C59.334 22.809 59.2441 22.7191 59.2441 22.6292V12.8539C59.2441 12.764 59.334 12.6742 59.4239 12.6742H61.5137C61.6036 12.6742 61.6935 12.7416 61.6935 12.8539V14.6517C61.6935 14.7416 61.7834 14.8315 61.8733 14.8315C61.9632 14.8315 62.0306 14.764 62.0531 14.6742C62.2329 14.0674 62.5025 13.3034 63.0868 12.8315C63.4014 12.5618 63.8059 12.4494 64.1879 12.4494C64.525 12.4494 64.8845 12.5393 65.2441 12.764C65.289 12.7865 65.334 12.8539 65.334 12.9213V15.1461C65.334 15.236 65.2441 15.3258 65.1542 15.3258C65.1093 15.3258 65.0868 15.3034 65.0643 15.3034C64.7497 15.1236 64.3677 14.9438 63.8508 14.9438ZM106.997 14.9438C106.368 14.9438 105.716 15.2584 105.356 16C105.109 16.5169 105.019 17.236 105.019 18.2022V22.6292C105.019 22.7191 104.952 22.809 104.84 22.809H102.57C102.48 22.809 102.39 22.7191 102.39 22.6292V12.8539C102.39 12.764 102.458 12.6742 102.57 12.6742H104.66C104.75 12.6742 104.84 12.7416 104.84 12.8539V14.6517C104.84 14.7416 104.907 14.8315 105.019 14.8315C105.132 14.8315 105.177 14.764 105.199 14.6742C105.379 14.0674 105.649 13.3034 106.233 12.8315C106.547 12.5618 106.952 12.4494 107.334 12.4494C107.671 12.4494 108.031 12.5393 108.39 12.764C108.435 12.7865 108.458 12.8539 108.458 12.9213V15.1461C108.458 15.236 108.39 15.3258 108.278 15.3258C108.233 15.3258 108.21 15.3034 108.188 15.3034C107.896 15.1236 107.514 14.9438 106.997 14.9438ZM159.649 14.9438C159.019 14.9438 158.368 15.2584 158.008 16C157.761 16.5169 157.671 17.236 157.671 18.2022V22.6292C157.671 22.7191 157.604 22.809 157.491 22.809H155.222C155.132 22.809 155.042 22.7191 155.042 22.6292V12.8539C155.042 12.764 155.109 12.6742 155.222 12.6742H157.312C157.401 12.6742 157.491 12.7416 157.491 12.8539V14.6517C157.491 14.7416 157.559 14.8315 157.671 14.8315C157.783 14.8315 157.828 14.764 157.851 14.6742C158.031 14.0674 158.3 13.3034 158.885 12.8315C159.199 12.5618 159.604 12.4494 159.986 12.4494C160.323 12.4494 160.682 12.5393 161.042 12.764C161.087 12.7865 161.109 12.8539 161.109 12.9213V15.1461C161.109 15.236 161.042 15.3258 160.929 15.3258C160.885 15.3258 160.862 15.3034 160.84 15.3034C160.547 15.1236 160.143 14.9438 159.649 14.9438ZM165.986 22.9888C164.008 22.9888 162.503 21.5281 162.503 18.9438V12.8764C162.503 12.7865 162.57 12.6966 162.682 12.6966H164.952C165.042 12.6966 165.132 12.764 165.132 12.8764V18.3146C165.132 19.9101 165.828 20.6742 167.132 20.6742C168.435 20.6742 169.222 19.8427 169.222 18.3146V12.8539C169.222 12.764 169.289 12.6742 169.401 12.6742H171.671C171.761 12.6742 171.851 12.7416 171.851 12.8539V22.6292C171.851 22.7191 171.783 22.809 171.671 22.809H169.581C169.491 22.809 169.401 22.7191 169.401 22.6292V20.8315C169.401 20.7416 169.334 20.6517 169.222 20.6517C169.109 20.6517 169.064 20.7191 169.042 20.809C168.795 21.6629 168.031 22.9888 165.986 22.9888ZM126.345 12.6742H123.963C123.896 12.6742 123.828 12.7191 123.806 12.7865L122.368 16.8539C122.12 17.573 121.694 18.7865 121.469 19.6629C121.446 19.7303 121.379 19.7978 121.289 19.7978C121.222 19.7978 121.132 19.7528 121.109 19.6629C120.862 18.764 120.435 17.573 120.165 16.8315L118.682 12.764C118.66 12.6966 118.592 12.6517 118.525 12.6517H116.143C116.053 12.6517 115.963 12.7191 115.963 12.8315C115.963 12.8539 115.963 12.8764 115.986 12.8989L119.918 22.7865L118.39 26.6292C118.39 26.6517 118.368 26.6742 118.368 26.6966C118.368 26.7865 118.435 26.8764 118.547 26.8764H120.84C120.907 26.8764 120.974 26.8315 120.997 26.764L126.503 12.8989V12.8315C126.525 12.764 126.458 12.6742 126.345 12.6742ZM52.4576 8.24719H47.9407C47.5587 8.24719 47.2441 8.5618 47.2441 8.96629V22.6517C47.2441 22.7416 47.334 22.8315 47.4239 22.8315H49.6935C49.7834 22.8315 49.8733 22.7416 49.8733 22.6517V19.236C49.8733 19.0337 50.0306 18.8764 50.2329 18.8764H52.4576C55.4913 18.8764 57.8733 16.4944 57.8733 13.5506C57.8733 10.6067 55.4913 8.22472 52.4576 8.24719ZM52.2329 16.4944H50.2104C50.0081 16.4944 49.8508 16.3371 49.8508 16.1348V10.9888C49.8508 10.7865 50.0081 10.6292 50.2104 10.6292H52.2329C53.9407 10.6292 55.2666 11.9326 55.2666 13.573C55.2666 15.2135 53.9407 16.4944 52.2329 16.4944ZM112.503 15.1011C112.503 15.0112 112.57 14.9213 112.682 14.9213H114.772C114.862 14.9213 114.952 14.8539 114.952 14.7416V12.8539C114.952 12.764 114.885 12.6742 114.772 12.6742H112.435C112.345 12.6742 112.255 12.6067 112.255 12.4944V10.1573C112.255 10.0674 112.188 9.97753 112.076 9.97753H110.053C109.963 9.97753 109.873 10.0449 109.873 10.1573V19.7528C109.873 22.2247 111.064 23.0787 112.637 23.0787C113.626 23.0787 114.233 22.764 114.48 22.6517C114.547 22.6067 114.592 22.5618 114.592 22.4719V20.9438C114.592 20.8315 114.48 20.7191 114.323 20.7865C114.008 20.8989 113.738 20.9888 113.401 20.9888C112.929 20.9888 112.48 20.764 112.48 19.9101L112.503 15.1011ZM84.2778 23.0337C86.8845 23.0337 89.0194 20.764 89.0194 17.7528C89.0194 14.7416 86.8845 12.4719 84.2778 12.4719C82.0756 12.4719 81.1767 13.9551 80.9744 14.382C80.9295 14.4719 80.8621 14.4944 80.8171 14.4944C80.7272 14.4944 80.6374 14.427 80.6374 14.3146V12.8764C80.6374 12.7865 80.5475 12.6966 80.4576 12.6966H78.3677C78.2778 12.6966 78.1879 12.7865 78.1879 12.8764V26.7416C78.1879 26.8315 78.2778 26.9213 78.3677 26.9213H80.6374C80.7272 26.9213 80.8171 26.8315 80.8171 26.7416V26.0674C80.8171 22.7191 80.6374 21.3708 80.6374 21.2135C80.6374 21.1236 80.7272 21.0337 80.8171 21.0337C80.907 21.0337 80.9744 21.1011 80.9744 21.1236C81.3789 21.9551 82.4351 23.0337 84.2778 23.0337ZM83.6261 20.5843C82.098 20.5843 80.862 19.3034 80.862 17.7303C80.862 16.1573 82.098 14.8764 83.6261 14.8764C85.1542 14.8764 86.3902 16.1573 86.3902 17.7303C86.3902 19.3034 85.1542 20.5843 83.6261 20.5843ZM95.5812 12.427C92.6374 12.427 90.48 14.809 90.48 17.7528C90.48 20.6966 92.7272 23.0787 95.7834 23.0787C97.4463 23.0787 98.7048 22.4944 99.5587 21.8202C99.6261 21.7528 99.6486 21.6629 99.6036 21.573L98.6598 20.2697C98.6149 20.1798 98.48 20.1798 98.4126 20.2247C97.9857 20.4944 97.3789 20.9888 96.0081 20.9888C94.8396 20.9888 93.8059 20.3146 93.3115 19.236C93.2666 19.1236 93.1992 18.9888 93.1992 18.9213C93.1992 18.8315 93.289 18.7416 93.3789 18.7416H99.8958C100.188 18.7416 100.592 18.5393 100.615 18.0449C100.727 14.8989 98.9744 12.427 95.5812 12.427ZM97.8284 16.9213H93.2666C93.1767 16.9213 93.0868 16.8539 93.0868 16.7416C93.0868 16.6966 93.1317 16.5393 93.1767 16.427C93.5362 15.2809 94.48 14.6067 95.7385 14.6067C96.7947 14.6067 97.5812 15.1236 97.9857 15.9326C98.098 16.1573 98.2104 16.4494 98.2104 16.5618C98.1654 16.764 98.0081 16.9213 97.8284 16.9213ZM70.5924 30.427C70.5924 29.9663 70.9632 29.5955 71.4239 29.5955C71.8845 29.5955 72.2553 29.9663 72.2553 30.427C72.2553 30.8876 71.8845 31.2584 71.4239 31.2584C70.9632 31.2584 70.5924 30.8876 70.5924 30.427ZM72.1654 34.1124C72.1654 34.0225 72.0756 33.9326 71.9857 33.9326H70.8396C70.7497 33.9326 70.6598 34.0225 70.6598 34.1124V43.7079C70.6598 43.7977 70.7272 43.8876 70.8396 43.8876H71.9857C72.0756 43.8876 72.1654 43.7977 72.1654 43.7079V34.1124ZM65.1991 38.1798C64.0531 38.0225 62.3677 37.8652 62.3677 36.6292C62.3677 35.7079 63.4913 35.0337 64.7947 35.0337C65.8958 35.0337 66.8621 35.4382 67.4688 35.8876C67.5362 35.9326 67.6711 35.9101 67.6935 35.8427L68.2328 34.9438C68.2778 34.8764 68.2778 34.7865 68.2104 34.7191C67.3789 34 66.0306 33.6404 64.7947 33.6404C62.2104 33.6404 60.8845 35.191 60.8845 36.6742C60.8845 38.4045 62.4351 39.1461 64.2778 39.4607C65.6036 39.6854 67.3115 39.9326 67.3115 41.1461C67.3115 42.1348 66.0755 42.764 64.6373 42.764C63.1542 42.764 62.1205 42.1124 61.6036 41.7753C61.5137 41.7079 61.4239 41.7303 61.3564 41.7977L60.7722 42.6742C60.7272 42.7416 60.7497 42.8315 60.8171 42.8764C61.4688 43.4607 62.8845 44.1348 64.6598 44.1348C67.334 44.1348 68.8171 42.6517 68.8171 41.0337C68.8171 39.1685 67.1093 38.4494 65.1991 38.1798ZM84.3452 33.9551H83.2666C83.1767 33.9551 83.0868 34.0449 83.0868 34.1348V35.6404C83.0868 35.7303 83.0194 35.7753 82.952 35.7753C82.8845 35.7753 82.862 35.7303 82.8171 35.6854C82.2104 34.6966 80.952 33.7079 79.0194 33.7079C76.4126 33.7079 74.0755 35.9775 74.0755 38.9213C74.0755 41.8652 76.4351 44.1348 79.0194 44.1348C80.952 44.1348 82.2104 43.1461 82.8171 42.1573C82.8396 42.1124 82.8845 42.0674 82.952 42.0674C83.0194 42.0674 83.0868 42.1124 83.0868 42.2022V43.7079C83.0868 43.7977 83.1767 43.8876 83.2666 43.8876H84.3452C84.4351 43.8876 84.525 43.7977 84.525 43.7079V34.1124C84.525 34.0225 84.4576 33.9326 84.3452 33.9551ZM79.334 42.6517C77.289 42.6517 75.6261 40.9888 75.6261 38.9213C75.6261 36.8539 77.289 35.191 79.334 35.191C81.3789 35.191 83.0418 36.8539 83.0418 38.9213C83.0418 40.9888 81.3789 42.6517 79.334 42.6517ZM59.6711 43.6629L54.1205 29.7079C54.098 29.6404 54.0306 29.5955 53.9632 29.5955H52.5924C52.525 29.5955 52.4576 29.6404 52.4351 29.7079L46.8845 43.6629V43.7303C46.8845 43.8202 46.9744 43.9101 47.0643 43.9101H48.3003C48.3677 43.9101 48.4351 43.8652 48.4576 43.7977L49.6935 40.7191C49.7385 40.5843 49.8733 40.4944 50.0081 40.4944H56.5924C56.7272 40.4944 56.8621 40.5843 56.907 40.7191L58.1429 43.7977C58.1654 43.8652 58.2329 43.9101 58.3003 43.9101H59.5362C59.6261 43.9101 59.716 43.8202 59.716 43.7303C59.6935 43.7079 59.6935 43.6854 59.6711 43.6629ZM55.716 38.9888H50.8845C50.6823 38.9888 50.5475 38.8315 50.5475 38.6292C50.5475 38.5843 50.5475 38.5393 50.5699 38.4944L52.3003 34.1348C52.6823 33.1685 53.1093 31.7753 53.1542 31.6404C53.1767 31.5506 53.2441 31.5056 53.334 31.5056C53.4239 31.5056 53.4913 31.5506 53.5138 31.6404C53.5362 31.7977 53.9632 33.1685 54.3452 34.1348L56.0755 38.4944C56.098 38.5393 56.098 38.5843 56.098 38.6292C56.0531 38.8315 55.8958 38.9888 55.716 38.9888ZM236.233 38.2022C235.087 38.0449 233.401 37.8876 233.401 36.6517C233.401 35.7303 234.525 35.0562 235.828 35.0562C236.929 35.0562 237.896 35.4607 238.503 35.9101C238.57 35.9551 238.682 35.9326 238.75 35.8652L239.289 34.9663C239.334 34.8989 239.334 34.809 239.244 34.7416C238.413 34.0225 237.064 33.6629 235.828 33.6629C233.244 33.6629 231.918 35.2135 231.918 36.6966C231.918 38.427 233.469 39.1685 235.312 39.4831C236.637 39.7079 238.345 39.955 238.345 41.1685C238.345 42.1573 237.109 42.7865 235.671 42.7865C234.188 42.7865 233.154 42.1348 232.66 41.7977C232.57 41.7303 232.48 41.7528 232.413 41.8202L231.806 42.6966C231.761 42.764 231.783 42.8539 231.851 42.8989C232.48 43.4831 233.918 44.1573 235.694 44.1573C238.368 44.1573 239.851 42.6741 239.851 41.0562C239.828 39.191 238.143 38.4719 236.233 38.2022ZM229.738 29.618H228.592C228.503 29.618 228.413 29.7079 228.413 29.7977V30.809L228.48 35.5955C228.48 35.6854 228.413 35.7303 228.345 35.7303C228.3 35.7303 228.255 35.7079 228.21 35.6404C227.649 34.7191 226.413 33.7303 224.368 33.7303C221.806 33.7303 219.469 36 219.469 38.9438C219.469 41.8876 221.806 44.1573 224.413 44.1573C226.345 44.1573 227.604 43.1685 228.21 42.1798C228.233 42.1348 228.278 42.0899 228.345 42.0899C228.413 42.0899 228.48 42.1348 228.48 42.2247V43.7303C228.48 43.8202 228.547 43.9101 228.66 43.9101H229.738C229.828 43.9101 229.918 43.8202 229.918 43.7303V29.7753C229.918 29.6854 229.851 29.618 229.738 29.618ZM224.727 42.6742C222.682 42.6742 221.019 41.0112 221.019 38.9438C221.019 36.8764 222.682 35.2135 224.727 35.2135C226.772 35.2135 228.435 36.8764 228.435 38.9438C228.435 41.0112 226.772 42.6742 224.727 42.6742ZM215.469 35.5955C215.469 35.6854 215.536 35.7303 215.604 35.7303C215.671 35.7303 215.716 35.7079 215.738 35.6404C215.941 35.0337 216.458 33.7753 218.031 33.7753C218.345 33.7753 218.772 33.8652 219.132 34.0899C219.177 34.1124 219.199 34.1798 219.199 34.2247V35.4831C219.199 35.573 219.132 35.6629 219.019 35.6629C218.974 35.6629 218.952 35.6404 218.93 35.6404C218.637 35.4607 218.233 35.2809 217.649 35.2809C216.997 35.2809 216.323 35.6854 215.941 36.4719C215.694 36.9888 215.559 37.7303 215.559 38.6292V43.7753C215.559 43.8652 215.491 43.9551 215.379 43.9551H214.233C214.143 43.9551 214.053 43.8652 214.053 43.7753V34.1798C214.053 34.0899 214.121 34 214.233 34H215.312C215.401 34 215.491 34.0899 215.491 34.1798L215.469 35.5955ZM211.581 33.9551H210.503C210.413 33.9551 210.323 34.0449 210.323 34.1348V35.6404C210.323 35.7303 210.255 35.7753 210.188 35.7753C210.121 35.7753 210.098 35.7303 210.053 35.6854C209.446 34.6966 208.188 33.7079 206.255 33.7079C203.649 33.7079 201.312 35.9775 201.312 38.9213C201.312 41.8652 203.671 44.1348 206.255 44.1348C208.188 44.1348 209.446 43.1461 210.053 42.1573C210.076 42.1124 210.121 42.0674 210.188 42.0674C210.255 42.0674 210.323 42.1124 210.323 42.2022V43.7079C210.323 43.7977 210.39 43.8876 210.503 43.8876H211.581C211.671 43.8876 211.761 43.7977 211.761 43.7079V34.1124C211.761 34.0449 211.694 33.9551 211.581 33.9551ZM206.57 42.6742C204.525 42.6742 202.862 41.0112 202.862 38.9438C202.862 36.8764 204.525 35.2135 206.57 35.2135C208.615 35.2135 210.278 36.8764 210.278 38.9438C210.278 41.0112 208.615 42.6742 206.57 42.6742ZM192.503 36.0899C192.413 36.0899 192.368 36.1348 192.323 36.2247L189.581 43.8202C189.559 43.8876 189.491 43.9326 189.424 43.9326H188.008C187.941 43.9326 187.873 43.8876 187.851 43.8202L184.143 34.2022V34.1348C184.143 34.0449 184.21 33.9551 184.323 33.9551H185.559C185.626 33.9551 185.694 34 185.716 34.0674L188.525 41.8427C188.547 41.9101 188.615 41.9775 188.705 41.9775C188.795 41.9775 188.862 41.9101 188.885 41.8427C188.952 41.6404 191.716 34.0899 191.716 34.0899C191.761 34 191.806 33.9775 191.873 33.9775H193.177C193.244 33.9775 193.311 34.0225 193.334 34.0899L196.165 41.8427C196.188 41.9326 196.255 41.9775 196.345 41.9775C196.435 41.9775 196.48 41.9326 196.525 41.8427C196.615 41.573 199.334 34.0674 199.334 34.0674C199.356 34 199.424 33.9551 199.491 33.9551H200.727C200.817 33.9551 200.907 34.0449 200.907 34.1348V34.2022L197.177 43.7977C197.154 43.8652 197.087 43.9101 197.019 43.9101H195.604C195.536 43.9101 195.469 43.8652 195.446 43.7977L192.705 36.2022C192.637 36.1348 192.592 36.0899 192.503 36.0899ZM185.222 43.6854L179.671 29.7303C179.649 29.6629 179.581 29.618 179.514 29.618H178.143C178.076 29.618 178.008 29.6629 177.986 29.7303L172.458 43.6854V43.7528C172.458 43.8427 172.525 43.9326 172.637 43.9326H173.873C173.941 43.9326 174.008 43.8876 174.031 43.8202L175.267 40.7416C175.312 40.6067 175.446 40.5168 175.581 40.5168H182.121C182.278 40.5168 182.39 40.6067 182.435 40.7416L183.671 43.8202C183.694 43.8876 183.761 43.9326 183.828 43.9326H185.064C185.154 43.9326 185.244 43.8427 185.244 43.7528C185.244 43.7303 185.244 43.7079 185.222 43.6854ZM181.267 39.0112H176.435C176.255 39.0112 176.098 38.8539 176.098 38.6517C176.098 38.6067 176.098 38.5618 176.121 38.5168L177.851 34.1573C178.233 33.191 178.66 31.7977 178.705 31.6629C178.727 31.573 178.795 31.5281 178.885 31.5281C178.974 31.5281 179.042 31.573 179.064 31.6629C179.087 31.8202 179.514 33.191 179.896 34.1573L181.626 38.5168C181.649 38.5618 181.649 38.6067 181.649 38.6517C181.604 38.8539 181.446 39.0112 181.267 39.0112ZM115.334 33.7079C112.458 33.7079 110.12 36.0449 110.12 38.9213C110.12 41.7977 112.458 44.1348 115.334 44.1348C118.21 44.1348 120.547 41.7977 120.547 38.9213C120.547 36.0449 118.21 33.7079 115.334 33.7079ZM115.334 42.6742C113.289 42.6742 111.626 41.0112 111.626 38.9438C111.626 36.8764 113.289 35.2135 115.334 35.2135C117.379 35.2135 119.042 36.8764 119.042 38.9438C119.042 41.0112 117.379 42.6742 115.334 42.6742ZM139.289 33.7303C136.413 33.7303 134.278 36.0674 134.278 38.9438C134.278 41.8202 136.48 44.1573 139.469 44.1573C141.087 44.1573 142.323 43.5955 143.154 42.9213C143.222 42.8539 143.244 42.764 143.199 42.6742L142.615 41.8427C142.57 41.7528 142.458 41.7528 142.368 41.7977C141.963 42.0674 140.974 42.7191 139.559 42.7191C136.795 42.7191 135.918 40.427 135.918 39.8202C135.918 39.7303 135.986 39.6404 136.098 39.6404H143.469C143.828 39.6404 144.165 39.3933 144.188 38.9663C144.323 36.2921 142.682 33.7303 139.289 33.7303ZM142.323 38.3595H136.053C135.963 38.3595 135.873 38.2697 135.873 38.1798C135.873 37.236 136.907 35.1236 139.244 35.1236C141.986 35.1236 142.66 37.3258 142.66 38.0225C142.66 38.2022 142.503 38.3595 142.323 38.3595ZM97.4688 29.618H92.952C92.5699 29.618 92.2553 29.9326 92.2553 30.3146V43.7528C92.2553 43.8427 92.3452 43.9326 92.4351 43.9326H93.5812C93.6711 43.9326 93.7609 43.8427 93.7609 43.7528V40.4045C93.7609 40.2022 93.9183 40.0449 94.098 40.0449H97.4688C100.345 40.0449 102.682 37.7079 102.682 34.8315C102.682 31.955 100.345 29.618 97.4688 29.618ZM97.4688 38.5618H94.098C93.8958 38.5618 93.7609 38.4045 93.7609 38.2022V31.4382C93.7609 31.236 93.9183 31.0786 94.098 31.0786H97.4688C99.5362 31.0786 101.199 32.7416 101.199 34.809C101.199 36.8764 99.5138 38.5618 97.4688 38.5618ZM106.098 35.5955C106.098 35.6854 106.165 35.7303 106.233 35.7303C106.3 35.7303 106.345 35.7079 106.368 35.6404C106.57 35.0337 107.087 33.7753 108.66 33.7753C108.997 33.7753 109.401 33.8652 109.761 34.0899C109.806 34.1124 109.828 34.1798 109.828 34.2247V35.4831C109.828 35.573 109.761 35.6629 109.649 35.6629C109.604 35.6629 109.581 35.6404 109.559 35.6404C109.267 35.4607 108.862 35.2809 108.278 35.2809C107.626 35.2809 106.952 35.6854 106.57 36.4719C106.323 36.9888 106.188 37.7303 106.188 38.6292V43.7753C106.188 43.8652 106.12 43.9551 106.008 43.9551H104.862C104.772 43.9551 104.682 43.8652 104.682 43.7753V34.1798C104.682 34.0899 104.75 34 104.862 34H105.941C106.031 34 106.12 34.0899 106.12 34.1798L106.098 35.5955ZM123.694 34.1348C123.694 34.0449 123.626 33.9551 123.514 33.9551H122.435C122.345 33.9551 122.255 34.0449 122.255 34.1348V47.7528C122.255 47.8427 122.323 47.9326 122.435 47.9326H123.581C123.671 47.9326 123.761 47.8427 123.761 47.7528V47.0786L123.694 42.2921C123.694 42.2022 123.761 42.1573 123.828 42.1573C123.873 42.1573 123.918 42.1798 123.963 42.2472C124.525 43.1685 125.761 44.1573 127.806 44.1573C130.368 44.1573 132.705 41.8876 132.705 38.9438C132.705 36 130.345 33.7303 127.761 33.7303C125.828 33.7303 124.57 34.7191 123.963 35.7079C123.941 35.7528 123.896 35.7977 123.828 35.7977C123.761 35.7977 123.694 35.7528 123.694 35.6629V34.1348ZM127.469 42.6742C125.424 42.6742 123.761 41.0112 123.761 38.9438C123.761 36.8764 125.424 35.2135 127.469 35.2135C129.514 35.2135 131.177 36.8764 131.177 38.9438C131.177 41.0112 129.514 42.6742 127.469 42.6742ZM147.469 35.5955C147.469 35.6854 147.536 35.7303 147.604 35.7303C147.671 35.7303 147.716 35.7079 147.738 35.6404C147.941 35.0337 148.458 33.7753 150.031 33.7753C150.368 33.7753 150.772 33.8652 151.132 34.0899C151.177 34.1124 151.199 34.1798 151.199 34.2247V35.4831C151.199 35.573 151.132 35.6629 151.019 35.6629C150.974 35.6629 150.952 35.6404 150.929 35.6404C150.637 35.4607 150.233 35.2809 149.649 35.2809C148.997 35.2809 148.323 35.6854 147.941 36.4719C147.694 36.9888 147.559 37.7303 147.559 38.6292V43.7753C147.559 43.8652 147.491 43.9551 147.379 43.9551H146.233C146.143 43.9551 146.053 43.8652 146.053 43.7753V34.1798C146.053 34.0899 146.12 34 146.233 34H147.311C147.401 34 147.491 34.0899 147.491 34.1798L147.469 35.5955ZM152.997 31.0112C152.997 30.9213 153.064 30.8315 153.177 30.8315H154.3C154.39 30.8315 154.48 30.9213 154.48 31.0112V33.7977C154.48 33.8876 154.547 33.9775 154.66 33.9775H157.491C157.581 33.9775 157.671 34.0449 157.671 34.1573V35.2584C157.671 35.3483 157.604 35.4382 157.491 35.4382H154.705C154.615 35.4382 154.525 35.5281 154.525 35.618V41.0337C154.525 42.1798 154.997 42.7865 155.896 42.7865C156.615 42.7865 157.064 42.5618 157.424 42.427C157.559 42.382 157.671 42.4719 157.671 42.5843V43.573C157.671 43.6629 157.626 43.7079 157.559 43.7528C157.312 43.8652 156.727 44.1798 155.761 44.1798C154.233 44.1798 153.042 43.3483 153.042 40.9213L152.997 31.0112ZM163.828 42.5168L164.165 43.3933L163.424 45.5281L158.929 34.2247V34.1573C158.929 34.0674 158.997 33.9775 159.109 33.9775H160.345C160.413 33.9775 160.48 34.0225 160.503 34.0899L162.592 39.3483C162.974 40.3146 163.401 41.6854 163.424 41.8427C163.446 41.9326 163.514 41.9775 163.604 41.9775C163.693 41.9775 163.761 41.9101 163.783 41.8427C163.806 41.7079 164.233 40.3146 164.637 39.3483L166.727 34.0674C166.75 34 166.817 33.9551 166.885 33.9551H168.12C168.21 33.9551 168.3 34.0449 168.3 34.1348V34.2022L162.907 47.7977C162.885 47.8652 162.817 47.9101 162.75 47.9101H161.446C161.356 47.9101 161.267 47.8202 161.267 47.7303V47.6629L163.424 42.4944L163.828 42.5168ZM35.3564 32.3595L33.5362 30.5393L35.3564 28.7191C36.7946 27.2809 36.7946 24.9213 35.3564 23.4831L28.952 17.0786V14.0674C28.952 13.0337 28.1879 12.1573 27.1767 12.0225C26.5924 11.9551 26.0081 12.1124 25.5587 12.5168C25.334 12.7191 25.1542 12.9438 25.0418 13.2135L21.1767 9.34831C19.7834 7.95505 17.5137 7.95505 16.098 9.34831L1.94071 23.5056C0.50251 24.9438 0.50251 27.3034 1.94071 28.7416L3.76094 30.5618L1.94071 32.382C0.50251 33.8202 0.50251 36.1573 1.94071 37.618L7.10925 42.764C7.76094 43.4157 8.63734 43.8427 9.55869 43.9101C10.6373 43.9775 11.6486 43.5955 12.4126 42.8315L17.5362 37.7079C18.1654 37.0786 19.1991 37.0786 19.8284 37.7079L24.9295 42.809C25.6935 43.573 26.7048 43.9551 27.7609 43.8876C28.6823 43.8427 29.5587 43.4157 30.2104 42.7416L35.3564 37.5955C36.7946 36.1573 36.7946 33.8202 35.3564 32.3595ZM3.51375 27.1461C2.92948 26.5618 2.92948 25.6404 3.51375 25.0786L17.4913 11.1011C18.1205 10.4719 19.1542 10.4719 19.7834 11.1011L33.7609 25.0786C34.3452 25.6629 34.3452 26.5843 33.7609 27.1461L31.9407 28.9663L21.1991 18.2247C19.8059 16.8315 17.5362 16.8315 16.1205 18.2247L5.33397 28.9888L3.51375 27.1461ZM30.3677 30.5393L28.5924 32.3146C28.3227 32.5843 27.9857 32.764 27.6036 32.7865C27.1767 32.809 26.7722 32.6517 26.48 32.3595L21.1767 27.0786C19.7834 25.6854 17.5137 25.6854 16.098 27.0786L10.7946 32.3595C10.525 32.6292 10.143 32.7865 9.76094 32.7865C9.37891 32.7865 8.99689 32.6292 8.72723 32.3595L6.907 30.5393L17.5137 19.9326C18.143 19.3034 19.1767 19.3034 19.8059 19.9326L30.3677 30.5393ZM33.7609 36.0225L28.5699 41.2135C28.3003 41.4831 27.9632 41.6629 27.5812 41.6854C27.1542 41.7079 26.7497 41.5506 26.4576 41.2584L21.1542 35.9775C19.7609 34.5843 17.4913 34.5843 16.0755 35.9775L10.7722 41.2584C10.48 41.5506 10.0755 41.7079 9.64858 41.6854C9.26656 41.6629 8.92948 41.4831 8.65981 41.2135L3.49127 36.0225C2.907 35.4382 2.907 34.5168 3.49127 33.9551L5.3115 32.1348L7.06431 33.8876C7.71599 34.5393 8.5924 34.9663 9.51375 35.0337C10.5924 35.1011 11.6036 34.7191 12.3677 33.9551L17.4913 28.8315C18.1205 28.2022 19.1542 28.2022 19.7834 28.8315L24.8845 33.9551C25.6486 34.7191 26.6598 35.1011 27.716 35.0337C28.6373 34.9888 29.5137 34.5618 30.1654 33.8876L31.9182 32.1348L33.7385 33.9551C34.3452 34.5168 34.3452 35.4382 33.7609 36.0225Z" fill="#2C2C2C"/>
</g>
<defs>
<clipPath id="clip0_31699_7483">
<rect width="239" height="56" fill="white" transform="translate(0.700012)"/>
</clipPath>
</defs>
</svg>
