<svg width="227" height="56" viewBox="0 0 227 56" fill="none" xmlns="http://www.w3.org/2000/svg">
<path d="M36.6705 22.7982C37.0989 22.7982 37.4461 22.451 37.4461 22.0226C37.4461 21.5943 37.0989 21.2471 36.6705 21.2471C36.2422 21.2471 35.895 21.5943 35.895 22.0226C35.895 22.451 36.2422 22.7982 36.6705 22.7982Z" fill="#2C2C2C"/>
<path d="M37.3636 25.4554C37.3636 25.3729 37.2976 25.2904 37.1986 25.2904H36.126C36.0435 25.2904 35.961 25.3564 35.961 25.4554V34.3993C35.961 34.4818 36.027 34.5644 36.126 34.5644H37.1986C37.2811 34.5644 37.3636 34.4983 37.3636 34.3993V25.4554ZM30.862 29.2508C29.7894 29.1023 28.2382 28.9538 28.2382 27.8152C28.2382 26.9571 29.2778 26.33 30.4989 26.33C31.5385 26.33 32.4296 26.6931 32.9907 27.1221C33.0567 27.1716 33.1722 27.1551 33.2052 27.0891L33.7002 26.2475C33.7332 26.1815 33.7333 26.099 33.6672 26.0495C32.8917 25.3894 31.6375 25.0429 30.4824 25.0429C28.0732 25.0429 26.8356 26.4785 26.8356 27.8647C26.8356 29.4818 28.2712 30.1584 30.0039 30.4554C31.2415 30.67 32.8257 30.901 32.8257 32.0231C32.8257 32.9472 31.687 33.5413 30.3339 33.5413C28.9643 33.5413 27.9907 32.9472 27.5121 32.6172C27.4296 32.5677 27.3471 32.5677 27.2811 32.6502L26.72 33.4752C26.687 33.5413 26.687 33.6238 26.7531 33.6733C27.3471 34.2178 28.6837 34.8614 30.3339 34.8614C32.8257 34.8614 34.2118 33.4752 34.2118 31.9571C34.2283 30.1749 32.6441 29.5149 30.862 29.2508ZM48.7168 25.3069H47.7267C47.6441 25.3069 47.5616 25.3729 47.5616 25.4719V26.8746C47.5616 26.9571 47.4956 26.9901 47.4296 26.9901C47.3801 26.9901 47.3306 26.9571 47.3141 26.9076C46.7531 25.9835 45.5814 25.0594 43.7663 25.0594C41.3405 25.0594 39.1623 27.1881 39.1623 29.9274C39.1623 32.6667 41.357 34.7954 43.7663 34.7954C45.5814 34.7954 46.7366 33.8713 47.3141 32.9472C47.3471 32.8977 47.3801 32.8647 47.4296 32.8647C47.4791 32.8647 47.5616 32.8977 47.5616 32.9802V34.3828C47.5616 34.4653 47.6276 34.5479 47.7267 34.5479H48.7168C48.7993 34.5479 48.8818 34.4818 48.8818 34.3828V25.4389C48.8818 25.3729 48.7993 25.3069 48.7168 25.3069ZM44.0303 33.4092C42.1161 33.4092 40.5814 31.8581 40.5814 29.9274C40.5814 28.0132 42.1326 26.4455 44.0303 26.4455C45.928 26.4455 47.4791 27.9967 47.4791 29.9274C47.4791 31.8581 45.9445 33.4092 44.0303 33.4092ZM25.7134 34.3498L20.5484 21.3465C20.5319 21.2805 20.4659 21.2475 20.3999 21.2475H19.1293C19.0633 21.2475 18.9973 21.297 18.9808 21.3465L13.8158 34.3498C13.8158 34.3663 13.7993 34.3828 13.7993 34.4158C13.7993 34.4984 13.8653 34.5809 13.9643 34.5809H15.1029C15.1689 34.5809 15.2349 34.5314 15.2514 34.4818L16.39 31.6106C16.4395 31.4951 16.555 31.4125 16.687 31.4125H22.8257C22.9577 31.4125 23.0732 31.4951 23.1227 31.6106L24.2613 34.4818C24.2778 34.5479 24.3438 34.5809 24.4098 34.5809H25.5484C25.6309 34.5809 25.7134 34.5149 25.7134 34.4158C25.7299 34.3993 25.7134 34.3663 25.7134 34.3498ZM22.0171 29.9934H17.5121C17.3306 29.9934 17.1821 29.8449 17.1821 29.6634C17.1821 29.6139 17.1821 29.5809 17.1986 29.5479L18.8158 25.4884C19.1788 24.5809 19.5748 23.2772 19.6078 23.1617C19.6243 23.0957 19.6903 23.0297 19.7729 23.0297C19.8554 23.0297 19.9214 23.0792 19.9379 23.1617C19.9709 23.2937 20.3669 24.5809 20.7134 25.4884L22.3306 29.5479C22.3471 29.5809 22.3471 29.6304 22.3471 29.6634C22.3306 29.8614 22.1821 29.9934 22.0171 29.9934ZM71.6045 25.1089C68.9148 25.1089 66.9346 27.2871 66.9346 29.9769C66.9346 32.6667 68.9808 34.8449 71.7861 34.8449C73.2877 34.8449 74.4593 34.3168 75.2184 33.7063C75.2844 33.6568 75.3009 33.5578 75.2514 33.4917L74.7069 32.7162C74.6573 32.6502 74.5583 32.6337 74.4758 32.6832C74.0963 32.9307 73.1887 33.5413 71.8521 33.5413C69.2778 33.5413 68.4527 31.4125 68.4527 30.8515C68.4527 30.769 68.5187 30.6865 68.6177 30.6865H75.4989C75.829 30.6865 76.1425 30.4389 76.159 30.0594C76.291 27.5016 74.7564 25.1089 71.6045 25.1089ZM74.4263 29.4323H68.5847C68.5022 29.4323 68.4197 29.3663 68.4197 29.2673C68.4197 28.3927 69.3768 26.4125 71.5715 26.4125C74.1128 26.4125 74.7564 28.4587 74.7564 29.1023C74.7564 29.3003 74.6078 29.4323 74.4263 29.4323ZM63.3372 30.868C63.2877 30.7855 63.2712 30.5545 63.2547 30.3894C64.7729 29.5644 65.796 27.9637 65.796 26.1155C65.796 23.4257 63.6177 21.2475 60.928 21.2475H56.7035C56.3405 21.2475 56.06 21.5446 56.06 21.8911V34.4158C56.06 34.4984 56.126 34.5809 56.225 34.5809H57.2976C57.3801 34.5809 57.4626 34.5149 57.4626 34.4158V31.297C57.4626 31.1155 57.6111 30.967 57.7927 30.967H60.9445C61.1425 30.967 61.3405 30.9505 61.5385 30.934C61.588 30.9835 61.6375 31.033 61.6705 31.099C62.1986 31.9076 62.6606 32.6337 63.1557 33.4092L63.8488 34.4984C63.8818 34.5479 63.9313 34.5809 63.9808 34.5809H65.4164C65.5484 34.5809 65.6309 34.4323 65.5484 34.3333C64.8224 33.1782 63.8488 31.6766 63.3372 30.868ZM57.7762 29.5809C57.5946 29.5809 57.4461 29.4323 57.4461 29.2508V22.9637C57.4461 22.7822 57.5946 22.6337 57.7762 22.6337H60.928C62.8422 22.6337 64.4098 24.1848 64.4098 26.1155C64.4098 28.0297 62.8587 29.5974 60.928 29.5974L57.7762 29.5809ZM89.6739 34.4158V21.2145C89.6739 21.1155 89.7399 21.0495 89.8389 21.0495H90.8785C90.9775 21.0495 91.0435 21.1155 91.0435 21.2145V34.4158C91.0435 34.5149 90.9775 34.5809 90.8785 34.5809H89.8389C89.7399 34.5809 89.6739 34.4984 89.6739 34.4158ZM87.1821 25.3234H86.192C86.1095 25.3234 86.027 25.3894 86.027 25.4884V26.8911C86.027 26.9736 85.961 27.0066 85.895 27.0066C85.8455 27.0066 85.796 26.9736 85.7795 26.9241C85.2184 26 84.0468 25.0759 82.2481 25.0759C79.8224 25.0759 77.6441 27.2046 77.6441 29.9439C77.6441 32.6832 79.8389 34.8119 82.2481 34.8119C84.0633 34.8119 85.2184 33.8878 85.7795 32.9637C85.8125 32.9142 85.8455 32.8812 85.895 32.8812C85.9445 32.8812 86.027 32.9142 86.027 32.9967V34.3993C86.027 34.4818 86.093 34.5644 86.192 34.5644H87.1821C87.2646 34.5644 87.3471 34.4983 87.3471 34.3993V25.4554C87.3471 25.3894 87.2646 25.3234 87.1821 25.3234ZM82.4956 33.4422C80.5814 33.4422 79.0468 31.8911 79.0468 29.9604C79.0468 28.0462 80.5979 26.4785 82.4956 26.4785C84.3933 26.4785 85.9445 28.0297 85.9445 29.9604C85.9445 31.8746 84.4098 33.4422 82.4956 33.4422ZM111.852 29.3003C110.779 29.1518 109.228 29.0033 109.228 27.8647C109.228 27.0066 110.268 26.3795 111.489 26.3795C112.529 26.3795 113.42 26.7426 113.981 27.1716C114.047 27.2211 114.162 27.2046 114.195 27.1386L114.69 26.297C114.723 26.231 114.723 26.1485 114.657 26.099C113.882 25.4389 112.628 25.0924 111.473 25.0924C109.063 25.0924 107.826 26.5281 107.826 27.9142C107.826 29.5314 109.261 30.2079 110.994 30.5049C112.232 30.7195 113.816 30.9505 113.816 32.0726C113.816 32.9967 112.677 33.5908 111.324 33.5908C109.954 33.5908 108.981 32.9967 108.502 32.6667C108.42 32.6172 108.337 32.6172 108.271 32.6997L107.71 33.5248C107.677 33.5908 107.677 33.6733 107.743 33.7228C108.337 34.2673 109.674 34.9109 111.324 34.9109C113.816 34.9109 115.202 33.5248 115.202 32.0066C115.218 30.2079 113.634 29.5479 111.852 29.3003ZM142.842 25.1089C140.152 25.1089 138.172 27.2871 138.172 29.9769C138.172 32.6667 140.218 34.8449 143.024 34.8449C144.525 34.8449 145.697 34.3168 146.456 33.7063C146.522 33.6568 146.539 33.5578 146.489 33.4917L145.944 32.7162C145.895 32.6502 145.796 32.6337 145.713 32.6832C145.334 32.9307 144.426 33.5413 143.09 33.5413C140.515 33.5413 139.69 31.4125 139.69 30.8515C139.69 30.769 139.756 30.6865 139.855 30.6865H146.737C147.067 30.6865 147.38 30.4389 147.397 30.0594C147.529 27.5016 146.01 25.1089 142.842 25.1089ZM145.68 29.4323H139.839C139.756 29.4323 139.674 29.3663 139.674 29.2673C139.674 28.3927 140.631 26.4125 142.826 26.4125C145.367 26.4125 146.01 28.4587 146.01 29.1023C145.994 29.3003 145.862 29.4323 145.68 29.4323ZM131.093 25.3234H130.103C130.02 25.3234 129.938 25.3894 129.938 25.4884V26.8911C129.938 26.9736 129.872 27.0066 129.806 27.0066C129.756 27.0066 129.707 26.9736 129.69 26.9241C129.129 26 127.958 25.0759 126.159 25.0759C123.733 25.0759 121.555 27.2046 121.555 29.9439C121.555 32.6832 123.75 34.8119 126.159 34.8119C127.974 34.8119 129.129 33.8878 129.69 32.9637C129.723 32.9142 129.756 32.8812 129.806 32.8812C129.855 32.8812 129.938 32.9142 129.938 32.9967V34.3993C129.938 34.4818 130.004 34.5644 130.103 34.5644H131.093C131.175 34.5644 131.258 34.4983 131.258 34.3993V25.4554C131.258 25.3894 131.192 25.3234 131.093 25.3234ZM126.423 33.4422C124.509 33.4422 122.974 31.8911 122.974 29.9604C122.974 28.0462 124.525 26.4785 126.423 26.4785C128.337 26.4785 129.872 28.0297 129.872 29.9604C129.872 31.8746 128.321 33.4422 126.423 33.4422ZM106.555 33.1782H99.9379C99.7564 33.1782 99.6078 33.0297 99.6078 32.8482V28.8878C99.6078 28.7063 99.7564 28.5578 99.9379 28.5578H105.35C105.433 28.5578 105.515 28.4917 105.515 28.3927V27.3201C105.515 27.2376 105.449 27.1551 105.35 27.1551H99.9379C99.7564 27.1551 99.6078 27.0066 99.6078 26.8251V22.9307C99.6078 22.7492 99.7564 22.6007 99.9379 22.6007H106.555C106.638 22.6007 106.72 22.5347 106.72 22.4356V21.363C106.72 21.2805 106.654 21.198 106.555 21.198H98.8818C98.5187 21.198 98.2382 21.495 98.2382 21.8416V33.8713C98.2382 34.2343 98.5352 34.5149 98.8818 34.5149H106.555C106.638 34.5149 106.72 34.4488 106.72 34.3498V33.2772C106.72 33.2607 106.638 33.1782 106.555 33.1782ZM116.968 22.5677C116.968 22.4851 117.034 22.4026 117.133 22.4026H118.172C118.255 22.4026 118.337 22.4686 118.337 22.5677V25.1749C118.337 25.2574 118.403 25.3399 118.502 25.3399H121.126C121.209 25.3399 121.291 25.4059 121.291 25.5049V26.5446C121.291 26.6271 121.225 26.7096 121.126 26.7096H118.519C118.436 26.7096 118.354 26.7756 118.354 26.8746V31.9406C118.354 33.0132 118.799 33.5578 119.624 33.5578C120.284 33.5578 120.713 33.3432 121.043 33.2277C121.175 33.1782 121.275 33.2607 121.275 33.3762V34.3003C121.275 34.3828 121.242 34.4323 121.175 34.4653C120.944 34.5809 120.4 34.8449 119.492 34.8449C118.057 34.8449 116.951 34.0693 116.951 31.8086V22.5677H116.968ZM133.585 22.5677C133.585 22.4851 133.651 22.4026 133.75 22.4026H134.789C134.872 22.4026 134.954 22.4686 134.954 22.5677V25.1749C134.954 25.2574 135.02 25.3399 135.119 25.3399H137.743C137.826 25.3399 137.908 25.4059 137.908 25.5049V26.5446C137.908 26.6271 137.842 26.7096 137.743 26.7096H135.136C135.053 26.7096 134.971 26.7756 134.971 26.8746V31.9406C134.971 33.0132 135.416 33.5578 136.242 33.5578C136.902 33.5578 137.331 33.3432 137.661 33.2277C137.793 33.1782 137.892 33.2607 137.892 33.3762V34.3003C137.892 34.3828 137.859 34.4323 137.793 34.4653C137.562 34.5809 137.017 34.8449 136.109 34.8449C134.674 34.8449 133.568 34.0693 133.568 31.8086V22.5677H133.585ZM172.644 25.4884V34.3993C172.644 34.4818 172.578 34.5644 172.479 34.5644H171.506C171.39 34.5644 171.341 34.4984 171.341 34.2838L171.308 33.4917C171.308 33.3762 171.159 33.3267 171.076 33.4257C170.515 34.2178 169.575 34.7954 168.238 34.7954C166.225 34.7954 164.872 33.4752 164.872 31.033V25.5049C164.872 25.4224 164.938 25.3399 165.037 25.3399H166.06C166.143 25.3399 166.225 25.4059 166.225 25.5049V30.901C166.225 32.5347 167.1 33.5413 168.618 33.5413C170.152 33.5413 171.291 32.5347 171.291 30.901V25.5049C171.291 25.4224 171.357 25.3399 171.456 25.3399H172.479C172.578 25.3234 172.644 25.4059 172.644 25.4884ZM157.694 34.8284C161.423 34.8284 163.106 32.7492 163.106 30.8185C163.106 28.7723 161.572 27.5512 158.42 27.1056L158.139 27.0726C156.588 26.8581 154.476 26.5776 154.476 24.8614C154.476 23.5743 155.977 22.5512 157.908 22.5512C159.212 22.5512 160.499 22.9472 161.473 23.6403C161.522 23.6733 161.572 23.7063 161.638 23.6898C161.737 23.6733 161.753 23.5908 161.753 23.5908L162.347 22.6007C162.347 22.6007 162.397 22.5347 162.38 22.4686C162.38 22.4191 162.331 22.3861 162.298 22.3531C161.258 21.5281 159.591 21 157.908 21C154.575 21 152.826 22.9637 152.826 24.8944C152.826 26.7921 154.278 27.9472 157.248 28.4587L157.43 28.4917C159.228 28.8053 161.456 29.1848 161.456 30.901C161.456 32.2706 159.872 33.2607 157.694 33.2607C156.258 33.2607 154.888 32.8152 153.618 31.9406L153.585 31.9241C153.552 31.9076 153.453 31.8911 153.387 31.9571L153.37 31.9736L152.694 32.9802C152.694 32.9802 152.661 33.0297 152.661 33.0792C152.661 33.1452 152.71 33.1782 152.727 33.1947C153.667 34.0363 155.532 34.8284 157.694 34.8284Z" fill="#2C2C2C"/>
<path d="M153.502 32.2376C153.584 32.2376 153.651 32.1711 153.651 32.0891C153.651 32.0071 153.584 31.9406 153.502 31.9406C153.42 31.9406 153.354 32.0071 153.354 32.0891C153.354 32.1711 153.42 32.2376 153.502 32.2376Z" fill="#2C2C2C"/>
<path d="M152.826 33.2607C152.908 33.2607 152.974 33.1942 152.974 33.1122C152.974 33.0302 152.908 32.9637 152.826 32.9637C152.744 32.9637 152.677 33.0302 152.677 33.1122C152.677 33.1942 152.744 33.2607 152.826 33.2607Z" fill="#2C2C2C"/>
<path d="M162.232 22.6671C162.314 22.6671 162.38 22.6007 162.38 22.5186C162.38 22.4366 162.314 22.3701 162.232 22.3701C162.15 22.3701 162.083 22.4366 162.083 22.5186C162.083 22.6007 162.15 22.6671 162.232 22.6671Z" fill="#2C2C2C"/>
<path d="M161.605 23.7062C161.687 23.7062 161.753 23.6397 161.753 23.5577C161.753 23.4757 161.687 23.4092 161.605 23.4092C161.522 23.4092 161.456 23.4757 161.456 23.5577C161.456 23.6397 161.522 23.7062 161.605 23.7062Z" fill="#2C2C2C"/>
<path d="M174.971 34.4165V25.6046C174.971 25.4561 175.086 25.3406 175.235 25.3406H175.994C176.159 25.3406 176.275 25.4561 176.275 25.6211L176.291 26.2647C176.291 26.3802 176.456 26.4297 176.522 26.3307C177.001 25.6376 177.76 25.1261 178.931 25.1261C180.119 25.1261 181.044 25.6541 181.539 26.6937C181.588 26.7928 181.72 26.7928 181.77 26.7103C182.265 25.8192 183.106 25.1261 184.558 25.1261C186.456 25.1261 187.611 26.3637 187.611 28.806V34.433C187.611 34.5155 187.545 34.598 187.446 34.598H186.407C186.324 34.598 186.242 34.532 186.242 34.433V28.9545C186.242 27.3373 185.581 26.3967 184.245 26.3967C182.892 26.3967 181.968 27.3538 181.968 28.9545V34.433C181.968 34.5155 181.902 34.598 181.803 34.598H180.763C180.68 34.598 180.598 34.532 180.598 34.433V28.9545C180.598 27.3373 179.839 26.3967 178.502 26.3967C177.133 26.3967 176.308 27.3538 176.308 28.9545V34.433C176.308 34.5155 176.242 34.598 176.142 34.598H175.103C175.053 34.5815 174.971 34.499 174.971 34.4165ZM189.938 34.4165V25.6046C189.938 25.4561 190.053 25.3406 190.202 25.3406H190.961C191.126 25.3406 191.242 25.4561 191.242 25.6211L191.258 26.2647C191.258 26.3802 191.423 26.4297 191.489 26.3307C191.968 25.6376 192.727 25.1261 193.898 25.1261C195.086 25.1261 196.01 25.6541 196.506 26.6937C196.555 26.7928 196.687 26.7928 196.737 26.7103C197.232 25.8192 198.073 25.1261 199.525 25.1261C201.423 25.1261 202.578 26.3637 202.578 28.806V34.433C202.578 34.5155 202.512 34.598 202.413 34.598H201.374C201.291 34.598 201.209 34.532 201.209 34.433V28.9545C201.209 27.3373 200.548 26.3967 199.212 26.3967C197.859 26.3967 196.935 27.3538 196.935 28.9545V34.433C196.935 34.5155 196.869 34.598 196.77 34.598H195.73C195.647 34.598 195.565 34.532 195.565 34.433V28.9545C195.565 27.3373 194.806 26.3967 193.469 26.3967C192.1 26.3967 191.275 27.3538 191.275 28.9545V34.433C191.275 34.5155 191.209 34.598 191.11 34.598H190.07C190.02 34.5815 189.938 34.499 189.938 34.4165ZM208.783 22.5683C208.783 22.4858 208.849 22.4033 208.948 22.4033H209.987C210.07 22.4033 210.152 22.4693 210.152 22.5683V25.1756C210.152 25.2581 210.218 25.3406 210.317 25.3406H212.941C213.024 25.3406 213.106 25.4066 213.106 25.5056V26.5452C213.106 26.6277 213.04 26.7103 212.941 26.7103H210.334C210.251 26.7103 210.169 26.7763 210.169 26.8753V31.9413C210.169 33.0139 210.614 33.5584 211.44 33.5584C212.1 33.5584 212.529 33.3439 212.859 33.2284C212.991 33.1789 213.09 33.2614 213.09 33.3769V34.301C213.09 34.3835 213.057 34.433 212.991 34.466C212.76 34.5815 212.215 34.8456 211.308 34.8456C209.872 34.8456 208.766 34.07 208.766 31.8093V22.5683H208.783Z" fill="#2C2C2C"/>
<path d="M205.68 22.8148C206.109 22.8148 206.456 22.4676 206.456 22.0392C206.456 21.6109 206.109 21.2637 205.68 21.2637C205.252 21.2637 204.905 21.6109 204.905 22.0392C204.905 22.4676 205.252 22.8148 205.68 22.8148Z" fill="#2C2C2C"/>
<path d="M206.374 25.4892C206.374 25.4067 206.308 25.3242 206.209 25.3242H205.136C205.053 25.3242 204.971 25.3902 204.971 25.4892V34.4331C204.971 34.5156 205.037 34.5981 205.136 34.5981H206.209C206.291 34.5981 206.374 34.5321 206.374 34.4331V25.4892Z" fill="#2C2C2C"/>
</svg>
