<svg width="166" height="56" viewBox="0 0 166 56" fill="none" xmlns="http://www.w3.org/2000/svg">
<g clip-path="url(#clip0_31699_7485)">
<path d="M34.6323 31.6604L32.8409 29.8681L34.6323 28.078C36.05 26.6615 36.05 24.3543 34.6323 22.9377L28.3358 16.6459V13.6757C28.3358 12.6569 27.5882 11.7884 26.5974 11.658C26.0246 11.5829 25.4473 11.7575 25.0138 12.1376C24.7949 12.3299 24.6224 12.5641 24.5074 12.8227L20.6945 9.02818C19.3166 7.6558 17.0851 7.65801 15.7072 9.03039L1.76492 22.9399C0.347253 24.3565 0.347253 26.6637 1.76492 28.0803L3.56079 29.8747L1.76492 31.6648C0.345042 33.0836 0.345042 35.3864 1.76492 36.8052L6.84067 41.877C7.48648 42.5223 8.33575 42.94 9.24695 42.9931C10.3019 43.0572 11.3038 42.6748 12.0447 41.9345L17.0895 36.9068C17.711 36.288 18.7173 36.288 19.3365 36.909L24.357 41.9345C25.0979 42.6748 26.0998 43.0549 27.1547 42.9931C28.0659 42.9378 28.9152 42.5201 29.561 41.877L34.6368 36.8052C36.0544 35.3886 36.0544 33.0814 34.6368 31.6648L34.6323 31.6604ZM3.31529 26.5267C2.75132 25.9631 2.75132 25.0482 3.31529 24.4846L17.074 10.7343C17.6955 10.1133 18.6996 10.1133 19.321 10.7343L33.0798 24.4846C33.6437 25.0482 33.6437 25.9631 33.0798 26.5267L31.2883 28.3167L20.7166 17.7421C19.3387 16.3653 17.105 16.363 15.7249 17.7376L5.11116 28.3233L3.31529 26.5289V26.5267ZM29.7402 29.8637L27.9841 31.6184C27.7253 31.877 27.3847 32.0515 27.0198 32.0737C26.5996 32.1002 26.1993 31.9477 25.9051 31.6538L20.6945 26.4537C19.3166 25.0791 17.0828 25.0791 15.705 26.4537L10.4943 31.6538C10.2223 31.9256 9.85958 32.0759 9.47254 32.0759C9.0855 32.0759 8.72279 31.9256 8.45076 31.6538L6.66153 29.8659L17.0939 19.4481C17.7154 18.8271 18.7217 18.8294 19.3409 19.4481L29.7402 29.8615V29.8637ZM33.0798 35.2494L27.9819 40.3433C27.7231 40.6019 27.3825 40.7765 27.0176 40.7986C26.5974 40.8251 26.1971 40.6726 25.9029 40.3787L20.6901 35.1809C19.3122 33.8063 17.0806 33.8063 15.7028 35.1809L10.4899 40.3787C10.1958 40.6726 9.79544 40.8251 9.37523 40.7986C9.01031 40.7765 8.66971 40.6019 8.41095 40.3433L3.31308 35.2494C2.74911 34.6858 2.74911 33.7709 3.31308 33.2074L5.10673 31.4151L6.83846 33.1455C7.48426 33.7908 8.33354 34.2085 9.24474 34.2615C10.2997 34.3256 11.3016 33.9433 12.0425 33.2029L17.0851 28.1709C17.7065 27.5521 18.7128 27.5521 19.3321 28.1731L24.3526 33.2029C25.0935 33.9433 26.0953 34.3234 27.1503 34.2615C28.0615 34.2063 28.9108 33.7886 29.5566 33.1455L31.2905 31.4129L33.082 33.2074C33.6459 33.7709 33.6459 34.6858 33.082 35.2494H33.0798Z" fill="#2C2C2C"/>
<path d="M129.386 17.0924C129.29 17.0924 129.209 17.0137 129.209 16.9176V14.8308C129.209 14.7347 129.288 14.6538 129.386 14.6538H135.481C135.898 14.6538 136.169 14.9947 136.182 15.329C136.182 15.329 136.195 15.6764 136.184 16.0348C136.068 20.1669 133.534 23.06 129.458 23.06C125.383 23.06 122.315 19.7495 122.315 15.6109C122.315 11.4723 125.385 8.0766 129.524 8.0766C132.771 8.0766 134.484 10.1197 134.58 10.2027C134.65 10.2683 134.655 10.3797 134.587 10.4518L133.04 12.0928C132.972 12.1628 132.863 12.1671 132.791 12.0994C132.706 12.012 131.53 10.6376 129.524 10.6376C126.825 10.6376 124.966 12.9123 124.966 15.6109C124.966 18.3095 126.841 20.5187 129.48 20.5187C131.585 20.5187 133.086 19.4021 133.451 17.5709C133.462 17.5119 133.468 17.4726 133.468 17.442C133.468 17.2475 133.311 17.0902 133.116 17.0902H129.386V17.0924Z" fill="#2C2C2C"/>
<path d="M141.223 22.9529C139.252 22.9529 137.771 21.5085 137.771 18.9279V12.8992C137.771 12.803 137.849 12.7244 137.945 12.7244H140.196C140.292 12.7244 140.371 12.803 140.371 12.8992V18.2986C140.371 19.8741 141.07 20.6323 142.355 20.6323C143.64 20.6323 144.427 19.8173 144.427 18.2986V12.8992C144.427 12.803 144.505 12.7244 144.601 12.7244H146.852C146.948 12.7244 147.027 12.803 147.027 12.8992V22.612C147.027 22.7082 146.948 22.7868 146.852 22.7868H144.787C144.691 22.7868 144.612 22.7104 144.612 22.612V20.8202C144.612 20.7241 144.534 20.6454 144.437 20.6454C144.341 20.6454 144.282 20.7066 144.256 20.7984C144.014 21.6353 143.251 22.9529 141.225 22.9529H141.223Z" fill="#2C2C2C"/>
<path d="M66.0703 12.4687C63.151 12.4687 60.7845 14.8352 60.7845 17.7545C60.7845 20.6738 63.151 23.0403 66.0703 23.0403C68.9896 23.0403 71.3561 20.6738 71.3561 17.7545C71.3561 14.8352 68.9896 12.4687 66.0703 12.4687ZM66.0703 20.5755C64.5494 20.5755 63.317 19.3125 63.317 17.7545C63.317 16.1965 64.5494 14.9335 66.0703 14.9335C67.5911 14.9335 68.8235 16.1965 68.8235 17.7545C68.8235 19.3125 67.5911 20.5755 66.0703 20.5755Z" fill="#2C2C2C"/>
<path d="M58.7132 14.9707C58.0795 14.9707 57.4458 15.2832 57.0853 16.0196C56.834 16.5331 56.751 17.252 56.751 18.2134L56.7554 22.6099C56.7554 22.706 56.6767 22.7847 56.5805 22.7847H54.3299C54.2337 22.7847 54.1551 22.706 54.1551 22.6099V12.897C54.1551 12.8009 54.2337 12.7222 54.3299 12.7222H56.3948C56.491 12.7222 56.5696 12.8009 56.5696 12.897V14.6888C56.5696 14.785 56.6483 14.8637 56.7444 14.8637C56.8406 14.8637 56.8996 14.7959 56.9258 14.702C57.1028 14.0923 57.3803 13.3516 57.9528 12.8774C58.2653 12.6195 58.6608 12.5037 59.0519 12.5037C59.3819 12.5037 59.738 12.5846 60.1008 12.8162C60.1488 12.8468 60.1773 12.9014 60.1773 12.9626V15.163C60.1773 15.2592 60.0986 15.3378 60.0024 15.3378C59.9653 15.3378 59.9325 15.3247 59.9041 15.3072C59.6004 15.1368 59.2136 14.9685 58.711 14.9685L58.7132 14.9707Z" fill="#2C2C2C"/>
<path d="M101.563 14.9707C100.93 14.9707 100.296 15.2832 99.9353 16.0196C99.684 16.5331 99.601 17.252 99.601 18.2134L99.6053 22.6099C99.6053 22.706 99.5267 22.7847 99.4305 22.7847H97.1798C97.0837 22.7847 97.005 22.706 97.005 22.6099V12.897C97.005 12.8009 97.0837 12.7222 97.1798 12.7222H99.2448C99.3409 12.7222 99.4196 12.8009 99.4196 12.897V14.6888C99.4196 14.785 99.4983 14.8637 99.5944 14.8637C99.6906 14.8637 99.7495 14.7959 99.7758 14.702C99.9528 14.0923 100.23 13.3516 100.803 12.8774C101.115 12.6195 101.511 12.5037 101.902 12.5037C102.232 12.5037 102.588 12.5846 102.951 12.8162C102.999 12.8468 103.027 12.9014 103.027 12.9626V15.163C103.027 15.2592 102.949 15.3378 102.852 15.3378C102.815 15.3378 102.782 15.3247 102.754 15.3072C102.45 15.1368 102.064 14.9685 101.561 14.9685L101.563 14.9707Z" fill="#2C2C2C"/>
<path d="M153.829 14.9707C153.196 14.9707 152.562 15.2832 152.201 16.0196C151.95 16.5331 151.867 17.252 151.867 18.2134L151.871 22.6099C151.871 22.706 151.793 22.7847 151.697 22.7847H149.446C149.35 22.7847 149.271 22.706 149.271 22.6099V12.897C149.271 12.8009 149.35 12.7222 149.446 12.7222H151.511C151.607 12.7222 151.686 12.8009 151.686 12.897V14.6888C151.686 14.785 151.764 14.8637 151.86 14.8637C151.957 14.8637 152.016 14.7959 152.042 14.702C152.219 14.0923 152.496 13.3516 153.069 12.8774C153.381 12.6195 153.777 12.5037 154.168 12.5037C154.498 12.5037 154.854 12.5846 155.217 12.8162C155.265 12.8468 155.293 12.9014 155.293 12.9626V15.163C155.293 15.2592 155.215 15.3378 155.119 15.3378C155.081 15.3378 155.049 15.3247 155.02 15.3072C154.716 15.1368 154.33 14.9685 153.827 14.9685L153.829 14.9707Z" fill="#2C2C2C"/>
<path d="M160.142 22.9529C158.171 22.9529 156.69 21.5085 156.69 18.9279V12.8992C156.69 12.803 156.768 12.7244 156.864 12.7244H159.115C159.211 12.7244 159.29 12.803 159.29 12.8992V18.2986C159.29 19.8741 159.989 20.6323 161.274 20.6323C162.559 20.6323 163.346 19.8173 163.346 18.2986V12.8992C163.346 12.803 163.424 12.7244 163.52 12.7244H165.771C165.867 12.7244 165.946 12.803 165.946 12.8992V22.612C165.946 22.7082 165.867 22.7868 165.771 22.7868H163.706C163.61 22.7868 163.531 22.7104 163.531 22.612V20.8202C163.531 20.7241 163.453 20.6454 163.356 20.6454C163.26 20.6454 163.201 20.7066 163.175 20.7984C162.933 21.6353 162.17 22.9529 160.144 22.9529H160.142Z" fill="#2C2C2C"/>
<path d="M120.775 12.72H118.419C118.343 12.72 118.279 12.768 118.253 12.8358C118.253 12.8358 117.311 15.5191 116.831 16.8826C116.582 17.595 116.158 18.7902 115.928 19.6796C115.911 19.7495 115.845 19.8129 115.756 19.8129C115.677 19.8129 115.607 19.7626 115.585 19.6818C115.345 18.7924 114.903 17.595 114.641 16.8739C114.043 15.235 113.166 12.8336 113.166 12.8336C113.142 12.7659 113.077 12.72 113.002 12.72H110.645C110.549 12.72 110.47 12.7986 110.47 12.8948C110.47 12.9188 110.474 12.9407 110.483 12.9625L114.386 22.7846L112.858 26.6042C112.849 26.6239 112.845 26.6457 112.845 26.6698C112.845 26.7659 112.924 26.8446 113.02 26.8446H115.303C115.378 26.8446 115.441 26.7987 115.467 26.7331L120.939 12.9603C120.948 12.9407 120.952 12.9188 120.952 12.897C120.952 12.8008 120.873 12.7222 120.777 12.7222L120.775 12.72Z" fill="#2C2C2C"/>
<path d="M47.416 8.31047H42.9234C42.5344 8.31047 42.2198 8.62513 42.2198 9.01408V22.6121C42.2198 22.7104 42.2985 22.7869 42.3968 22.7869H44.6453C44.7414 22.7869 44.8223 22.7082 44.8223 22.6121V19.2317C44.8223 19.0372 44.9796 18.8799 45.1741 18.8799H47.4182C50.4249 18.8799 52.7914 16.5134 52.7914 13.5941C52.7914 10.6748 50.4249 8.30829 47.4182 8.30829L47.416 8.31047ZM47.1888 16.5069H45.1719C44.9774 16.5069 44.8201 16.3495 44.8201 16.1551V11.0353C44.8201 10.8408 44.9774 10.6835 45.1719 10.6835H47.1888C48.8844 10.6835 50.1889 11.9858 50.1889 13.5941C50.1889 15.2023 48.8866 16.5047 47.1888 16.5047V16.5069Z" fill="#2C2C2C"/>
<path d="M107.026 15.1257C107.026 15.0296 107.105 14.9509 107.201 14.9509H109.285C109.382 14.9509 109.46 14.8722 109.46 14.7739V12.8969C109.46 12.8007 109.382 12.7221 109.285 12.7221H106.96C106.864 12.7221 106.786 12.6434 106.786 12.5473V10.2114C106.786 10.1152 106.707 10.0366 106.611 10.0366H104.601C104.504 10.0366 104.426 10.1152 104.426 10.2114V19.7363C104.426 22.1924 105.621 23.0424 107.179 23.0424C108.169 23.0424 108.759 22.7408 109.004 22.6229C109.08 22.5857 109.117 22.5245 109.117 22.4393L109.113 20.9141C109.113 20.7939 109.001 20.6978 108.857 20.7524C108.54 20.8704 108.274 20.9469 107.95 20.9469C107.485 20.9469 107.026 20.7284 107.026 19.8696V15.1279V15.1257Z" fill="#2C2C2C"/>
<path d="M78.991 22.9965C81.5847 22.9965 83.7109 20.7328 83.7109 17.7544C83.7109 14.7761 81.5847 12.5123 78.991 12.5123C76.8081 12.5123 75.9165 13.9807 75.7089 14.4046C75.6674 14.4877 75.5997 14.5095 75.5451 14.5095C75.4489 14.5095 75.3703 14.4309 75.3703 14.3347V12.8947C75.3703 12.7986 75.2916 12.7199 75.1954 12.7199H73.1305C73.0344 12.7199 72.9557 12.7986 72.9557 12.8969V26.6697C72.9557 26.7659 73.0344 26.8445 73.1305 26.8445H75.3812C75.4773 26.8445 75.556 26.7659 75.556 26.6697V25.9945C75.556 22.6644 75.3681 21.3424 75.3681 21.1654C75.3681 21.0693 75.4467 20.9906 75.5429 20.9906C75.639 20.9906 75.6893 21.0649 75.7024 21.0911C76.1285 21.9368 77.1686 22.9965 78.991 22.9965ZM78.3551 20.5776C76.8343 20.5776 75.6019 19.3146 75.6019 17.7566C75.6019 16.1986 76.8343 14.9356 78.3551 14.9356C79.876 14.9356 81.1084 16.1986 81.1084 17.7566C81.1084 19.3146 79.876 20.5776 78.3551 20.5776Z" fill="#2C2C2C"/>
<path d="M90.2203 12.4687C87.301 12.4687 85.153 14.8352 85.153 17.7545C85.153 20.6738 87.3818 23.0403 90.4169 23.0403C92.0601 23.0403 93.3144 22.4678 94.1535 21.7948C94.2278 21.7358 94.2431 21.6309 94.1885 21.5522L93.2554 20.263C93.1986 20.1843 93.0893 20.1669 93.0107 20.2237C92.5955 20.4924 91.9902 20.971 90.6158 20.971C89.4555 20.971 88.4219 20.2936 87.9346 19.2251C87.8888 19.1224 87.821 18.976 87.821 18.9082C87.821 18.8121 87.8997 18.7334 87.9958 18.7334C87.9958 18.7334 94.0399 18.7334 94.4616 18.7334C94.7435 18.7334 95.1543 18.5411 95.1783 18.0451C95.3335 14.9335 93.6028 12.4709 90.2203 12.4709V12.4687ZM92.4469 16.9373H87.9106C87.8145 16.9373 87.7358 16.8586 87.7358 16.7625C87.7358 16.7187 87.7773 16.5702 87.8166 16.45C88.1859 15.3072 89.1124 14.6341 90.3536 14.6341C91.4002 14.6341 92.1825 15.1564 92.5889 15.9561C92.7048 16.1856 92.8009 16.4806 92.8009 16.5833C92.8009 16.7777 92.6436 16.9351 92.4491 16.9351L92.4469 16.9373Z" fill="#2C2C2C"/>
<path d="M57.284 33.5857C54.4193 33.5857 52.0965 35.9085 52.0965 38.7732C52.0965 41.6379 54.4193 43.9606 57.284 43.9606C60.1487 43.9606 62.4714 41.6379 62.4714 38.7732C62.4714 35.9085 60.1487 33.5857 57.284 33.5857ZM57.284 42.4813C55.2518 42.4813 53.6064 40.8206 53.6064 38.7732C53.6064 36.7257 55.254 35.065 57.284 35.065C59.3139 35.065 60.9615 36.7257 60.9615 38.7732C60.9615 40.8206 59.3139 42.4813 57.284 42.4813Z" fill="#2C2C2C"/>
<path d="M65.7842 35.4408C65.7842 35.5304 65.8585 35.5719 65.9154 35.5719C65.9765 35.5719 66.0181 35.5391 66.0399 35.4714C66.2344 34.8683 66.7588 33.6206 68.3081 33.6206C68.6315 33.6206 69.0466 33.6993 69.4028 33.9265C69.4487 33.9571 69.4793 34.0096 69.4793 34.0707V35.3294C69.4793 35.4255 69.4028 35.502 69.3067 35.502C69.2717 35.502 69.2389 35.4889 69.2105 35.4736C68.9133 35.3053 68.5266 35.1196 67.9322 35.1196C67.2811 35.1196 66.608 35.5195 66.2278 36.2996C65.9809 36.8021 65.8564 37.5451 65.8564 38.4301V43.5389C65.8564 43.635 65.7821 43.7115 65.6881 43.7115H64.5518C64.4557 43.7115 64.3792 43.635 64.3792 43.5389V34.0052C64.3792 33.909 64.4557 33.8326 64.5518 33.8326H65.6138C65.7099 33.8326 65.7864 33.909 65.7864 34.0052V35.4408H65.7842Z" fill="#2C2C2C"/>
<path d="M50.1343 38.0936C50.2304 38.0936 50.3069 38.0171 50.3069 37.921V36.7847C50.3069 36.6886 50.2304 36.6121 50.1343 36.6121H44.0444C43.8543 36.6121 43.6991 36.4591 43.6991 36.269V31.3372C43.6991 31.1471 43.8543 30.9919 44.0444 30.9919H51.0979C51.1941 30.9919 51.2706 30.9155 51.2706 30.8193V29.6831C51.2706 29.5891 51.1941 29.5104 51.0979 29.5104H42.9103C42.5301 29.5104 42.2198 29.8185 42.2198 30.2009V43.5389C42.2198 43.6351 42.2963 43.7115 42.3924 43.7115H43.5287C43.6248 43.7115 43.7013 43.6351 43.7013 43.5389V38.441C43.7013 38.2509 43.8564 38.0958 44.0466 38.0958H50.1343V38.0936Z" fill="#2C2C2C"/>
<path d="M104.419 38.0455C103.279 37.8838 101.616 37.733 101.616 36.5093C101.616 35.6003 102.721 34.9317 104.028 34.9317C105.132 34.9317 106.08 35.3206 106.677 35.7795C106.746 35.8319 106.864 35.8123 106.91 35.7402L107.446 34.8486C107.481 34.7809 107.483 34.6891 107.413 34.6301C106.585 33.9265 105.245 33.5529 104.024 33.5529C101.461 33.5529 100.139 35.0846 100.139 36.5618C100.139 38.2815 101.673 39.0069 103.515 39.3238C104.837 39.551 106.519 39.7957 106.519 40.9997C106.519 41.9896 105.302 42.6124 103.858 42.6124C102.391 42.6124 101.358 41.9743 100.858 41.6225C100.772 41.5635 100.678 41.5766 100.617 41.6553L100.025 42.5315C99.99 42.5949 99.9922 42.6823 100.06 42.7413C100.696 43.3225 102.121 43.9999 103.869 43.9999C106.53 43.9999 107.996 42.5271 107.996 40.9123C107.996 39.0244 106.316 38.3186 104.419 38.0498V38.0455Z" fill="#2C2C2C"/>
<path d="M148.978 38.0455C147.838 37.8838 146.175 37.733 146.175 36.5093C146.175 35.6003 147.28 34.9317 148.587 34.9317C149.691 34.9317 150.639 35.3206 151.235 35.7795C151.305 35.8319 151.423 35.8123 151.469 35.7402L152.005 34.8486C152.04 34.7809 152.042 34.6891 151.972 34.6301C151.144 33.9265 149.804 33.5529 148.583 33.5529C146.02 33.5529 144.698 35.0846 144.698 36.5618C144.698 38.2815 146.231 39.0069 148.074 39.3238C149.396 39.551 151.078 39.7957 151.078 40.9997C151.078 41.9896 149.861 42.6124 148.417 42.6124C146.95 42.6124 145.917 41.9743 145.416 41.6225C145.331 41.5635 145.237 41.5766 145.176 41.6553L144.584 42.5315C144.549 42.5949 144.551 42.6823 144.619 42.7413C145.255 43.3225 146.679 43.9999 148.428 43.9999C151.089 43.9999 152.555 42.5271 152.555 40.9123C152.555 39.0244 150.875 38.3186 148.978 38.0498V38.0455Z" fill="#2C2C2C"/>
<path d="M129.039 33.5879C126.176 33.5879 124.07 35.9085 124.07 38.771C124.07 41.6335 126.255 43.9541 129.231 43.9541C130.826 43.9541 132.074 43.3925 132.896 42.7326C132.968 42.6758 132.985 42.5709 132.931 42.4944L132.345 41.6619C132.29 41.5854 132.181 41.5679 132.105 41.6226C131.696 41.8891 130.726 42.5272 129.314 42.5272C126.574 42.5272 125.689 40.2547 125.689 39.6559C125.689 39.5598 125.766 39.4833 125.862 39.4833C125.862 39.4833 132.784 39.4833 133.197 39.4833C133.551 39.4833 133.881 39.2255 133.901 38.8081C134.034 36.1357 132.406 33.5835 129.039 33.5835V33.5879ZM132.057 38.1963H125.829C125.733 38.1963 125.656 38.1198 125.656 38.0237C125.656 37.0841 126.681 34.9842 129.013 34.9842C131.729 34.9842 132.402 37.1671 132.402 37.851C132.402 38.0411 132.247 38.1963 132.057 38.1963Z" fill="#2C2C2C"/>
<path d="M93.1811 43.8755C91.1227 43.8755 89.5975 42.4726 89.5975 39.7106V34.0075C89.5975 33.9113 89.674 33.8348 89.7702 33.8348H90.9064C91.0026 33.8348 91.079 33.9113 91.079 34.0075V39.6713C91.079 41.2752 91.9444 42.5404 93.7777 42.5404C95.611 42.5404 96.5615 41.1615 96.5615 39.6713V34.0075C96.5615 33.9113 96.638 33.8348 96.7341 33.8348H97.8704C97.9665 33.8348 98.043 33.9113 98.043 34.0075V43.5411C98.043 43.6373 97.9665 43.7138 97.8704 43.7138H96.8084C96.7123 43.7138 96.6358 43.6373 96.6358 43.5433V42.1077C96.6358 42.0181 96.5615 41.9766 96.5047 41.9766C96.4435 41.9766 96.4086 42.0203 96.3736 42.0793C95.7596 43.1303 94.8593 43.8755 93.1855 43.8755H93.1811Z" fill="#2C2C2C"/>
<path d="M118.62 33.6708C120.679 33.6708 122.204 35.0737 122.204 37.8357V43.5388C122.204 43.635 122.127 43.7115 122.031 43.7115H120.895C120.799 43.7115 120.722 43.635 120.722 43.5388V37.875C120.722 36.2711 119.857 35.0059 118.024 35.0059C116.247 35.0059 115.24 36.3848 115.24 37.875V43.5388C115.24 43.635 115.163 43.7115 115.067 43.7115H113.931C113.835 43.7115 113.758 43.635 113.758 43.5388V34.0052C113.758 33.909 113.835 33.8325 113.931 33.8325H114.993C115.089 33.8325 115.166 33.909 115.166 34.003V35.4386C115.166 35.5282 115.24 35.5697 115.297 35.5697C115.358 35.5697 115.393 35.526 115.428 35.467C116.042 34.416 116.942 33.6708 118.616 33.6708H118.62Z" fill="#2C2C2C"/>
<path d="M85.6272 36.4134C86.5209 35.7011 87.0978 34.6238 87.0978 33.4023C87.0978 31.2566 85.3562 29.515 83.1449 29.515H78.0339C77.6537 29.515 77.3434 29.8231 77.3434 30.2055V43.0256C77.3434 43.408 77.6515 43.7161 78.0339 43.7161H83.7589C85.9724 43.7161 87.7118 41.9746 87.7118 39.8266C87.7118 38.3451 86.8705 37.0712 85.6294 36.4156L85.6272 36.4134ZM78.8249 31.3396C78.8249 31.1495 78.98 30.9943 79.1701 30.9943H83.075C84.4975 30.9943 85.5878 32.0869 85.5878 33.4329C85.5878 34.779 84.4953 35.8715 83.075 35.8715H79.1701C78.98 35.8715 78.8249 35.7164 78.8249 35.5263V31.3374V31.3396ZM83.6868 42.2324H79.1701C78.98 42.2324 78.8249 42.0773 78.8249 41.8872V37.6983C78.8249 37.5082 78.98 37.353 79.1701 37.353H83.6868C85.1093 37.353 86.1997 38.4456 86.1997 39.7916C86.1997 41.1377 85.1071 42.2302 83.6868 42.2302V42.2324Z" fill="#2C2C2C"/>
<path d="M110.763 31.1646C111.219 31.1646 111.588 30.7948 111.588 30.3386C111.588 29.8824 111.219 29.5126 110.763 29.5126C110.306 29.5126 109.937 29.8824 109.937 30.3386C109.937 30.7948 110.306 31.1646 110.763 31.1646Z" fill="#2C2C2C"/>
<path d="M110.022 34.0053C110.022 33.9091 110.098 33.8326 110.194 33.8326H111.33C111.427 33.8326 111.499 33.9091 111.499 34.0053V43.5389C111.499 43.6351 111.424 43.7116 111.33 43.7116H110.194C110.098 43.7116 110.022 43.6351 110.022 43.5389V34.0053Z" fill="#2C2C2C"/>
<path d="M139.785 38.0455C138.645 37.8838 136.982 37.733 136.982 36.5093C136.982 35.6003 138.088 34.9317 139.394 34.9317C140.498 34.9317 141.446 35.3206 142.043 35.7795C142.113 35.8319 142.231 35.8123 142.276 35.7402L142.812 34.8486C142.847 34.7809 142.849 34.6891 142.779 34.6301C141.951 33.9265 140.611 33.5529 139.39 33.5529C136.827 33.5529 135.505 35.0846 135.505 36.5618C135.505 38.2815 137.039 39.0069 138.881 39.3238C140.203 39.551 141.885 39.7957 141.885 40.9997C141.885 41.9896 140.668 42.6124 139.224 42.6124C137.758 42.6124 136.724 41.9743 136.224 41.6225C136.138 41.5635 136.044 41.5766 135.983 41.6553L135.391 42.5315C135.356 42.5949 135.358 42.6823 135.426 42.7413C136.062 43.3225 137.487 43.9999 139.235 43.9999C141.896 43.9999 143.362 42.5271 143.362 40.9123C143.362 39.0244 141.682 38.3186 139.785 38.0498V38.0455Z" fill="#2C2C2C"/>
</g>
<defs>
<clipPath id="clip0_31699_7485">
<rect width="165" height="56" fill="white" transform="translate(0.700012)"/>
</clipPath>
</defs>
</svg>
