<svg width="126" height="56" viewBox="0 0 126 56" fill="none" xmlns="http://www.w3.org/2000/svg">
<g clip-path="url(#clip0_31699_7516)">
<path d="M4.2281 53.0617H4.89117V55.355H4.2281V53.0617ZM5.34012 53.0617H5.95803L6.7641 54.3306V53.0617H7.38766V55.355H6.7641L5.96255 54.0958V55.355H5.34012V53.0617Z" fill="#2C2C2C"/>
<path d="M7.8014 53.0617H8.41931L9.22538 54.3306V53.0617H9.84894V55.355H9.22538L8.42383 54.0958V55.355H7.80103V53.0617H7.8014Z" fill="#2C2C2C"/>
<path d="M10.1757 54.2113C10.1757 53.8365 10.2727 53.5452 10.4677 53.3367C10.6626 53.1282 10.9336 53.0236 11.2809 53.0236C11.6373 53.0236 11.912 53.126 12.105 53.3315C12.2981 53.5369 12.3937 53.8233 12.3937 54.1925C12.3937 54.4604 12.3519 54.6802 12.2676 54.8518C12.1833 55.0234 12.0618 55.1566 11.9026 55.2522C11.7434 55.3478 11.5451 55.3952 11.3072 55.3952C11.066 55.3952 10.8658 55.3538 10.7078 55.2717C10.5497 55.1897 10.4214 55.0591 10.3232 54.8804C10.225 54.7016 10.1757 54.4792 10.1757 54.2113ZM10.8372 54.2143C10.8372 54.4457 10.8771 54.6121 10.9576 54.7133C11.0382 54.8145 11.1473 54.8649 11.2854 54.8649C11.4277 54.8649 11.5375 54.8156 11.6154 54.7163C11.6933 54.6169 11.7321 54.4393 11.7321 54.1831C11.7321 53.967 11.6918 53.8094 11.6106 53.71C11.5293 53.6107 11.4186 53.5603 11.2794 53.5603C11.1462 53.5603 11.0389 53.6111 10.9584 53.7119C10.8779 53.8128 10.8372 53.9806 10.8372 54.2143Z" fill="#2C2C2C"/>
<path d="M12.3817 53.0617H13.073L13.5546 54.7122L14.0307 53.0617H14.702L13.9073 55.355H13.19L12.3817 53.0617Z" fill="#2C2C2C"/>
<path d="M16.0334 54.9764H15.2826L15.178 55.355H14.5025L15.3075 53.0617H16.0289L16.8334 55.355H16.1406L16.0334 54.9764ZM15.8964 54.4808L15.6601 53.6563L15.4264 54.4804H15.8964V54.4808Z" fill="#2C2C2C"/>
<path d="M16.6573 53.0617H18.6683V53.6281H17.9936V55.3554H17.332V53.6281H16.6573V53.0617Z" fill="#2C2C2C"/>
<path d="M18.9641 53.0617H19.6272V55.355H18.9641V53.0617Z" fill="#2C2C2C"/>
<path d="M19.8619 53.0617H20.5532L21.0349 54.7122L21.5109 53.0617H22.1823L21.3875 55.355H20.6702L19.8619 53.0617Z" fill="#2C2C2C"/>
<path d="M22.367 53.0617H24.1402V53.5517H23.0301V53.9159H24.0597V54.3837H23.0301V54.8357H24.1722V55.355H22.367V53.0617Z" fill="#2C2C2C"/>
<path d="M25.4745 55.355V53.0617H26.5771C26.7818 53.0617 26.938 53.0805 27.046 53.1182C27.154 53.1558 27.2413 53.225 27.3075 53.327C27.3738 53.429 27.4069 53.5524 27.4069 53.6984C27.4069 53.826 27.3817 53.9355 27.3309 54.0281C27.2801 54.1207 27.2104 54.1952 27.1216 54.2524C27.0497 54.2949 26.9712 54.3254 26.8894 54.3427C26.9685 54.3713 27.0257 54.3991 27.0618 54.4274C27.0859 54.4462 27.1212 54.4864 27.1675 54.5482C27.2138 54.6099 27.2447 54.6573 27.2601 54.6904L27.5804 55.355H26.833L26.4793 54.6543C26.4345 54.5636 26.3946 54.5049 26.3596 54.4774C26.3129 54.4424 26.2561 54.4238 26.1978 54.4243H26.1391V55.355H25.4745ZM26.1391 53.9912H26.4179C26.448 53.9912 26.5067 53.9807 26.5933 53.96C26.6373 53.9506 26.6731 53.9261 26.7005 53.8877C26.728 53.8493 26.7419 53.8049 26.7419 53.7549C26.7419 53.6807 26.7205 53.6243 26.6764 53.5844C26.6324 53.5445 26.5504 53.525 26.43 53.525H26.1391V53.9912Z" fill="#2C2C2C"/>
<path d="M27.7608 53.0617H29.534V53.5517H28.4239V53.9159H29.4535V54.3837H28.4239V54.8357H29.566V55.355H27.7608V53.0617Z" fill="#2C2C2C"/>
<path d="M31.2086 54.9764H30.4578L30.3532 55.355H29.6777L30.4827 53.0617H31.2041L32.0086 55.355H31.3158L31.2086 54.9764ZM31.0716 54.4808L30.8353 53.6563L30.6016 54.4804H31.0716V54.4808Z" fill="#2C2C2C"/>
<path d="M32.1888 53.0617H32.8507V54.7905H33.883V55.355H32.1892L32.1888 53.0617ZM35.1203 53.0617H36.8928V53.5517H35.783V53.9159H36.8126V54.3837H35.783V54.8357H36.9251V55.355H35.1199L35.1203 53.0617Z" fill="#2C2C2C"/>
<path d="M37.1356 54.5957L37.7652 54.5535C37.7787 54.663 37.8065 54.7466 37.8483 54.8038C37.9164 54.8967 38.0139 54.943 38.1403 54.943C38.2348 54.943 38.3078 54.9193 38.3586 54.8722C38.4094 54.8252 38.4354 54.7695 38.4354 54.7067C38.4354 54.6472 38.4109 54.5942 38.3624 54.5471C38.3138 54.5001 38.2005 54.456 38.0237 54.4143C37.7335 54.3447 37.5269 54.2517 37.4028 54.1358C37.2786 54.0199 37.2161 53.8724 37.2161 53.6933C37.2161 53.5751 37.2481 53.4641 37.3117 53.3591C37.3753 53.2541 37.4712 53.1721 37.5996 53.1118C37.7279 53.0516 37.9029 53.0223 38.126 53.0223C38.3996 53.0223 38.6081 53.0765 38.7519 53.1856C38.8956 53.2947 38.9807 53.4678 39.0078 53.7057L38.3846 53.7448C38.368 53.6417 38.333 53.5664 38.28 53.5194C38.2269 53.4724 38.1535 53.449 38.0602 53.449C37.9834 53.449 37.9255 53.4667 37.8863 53.5017C37.8472 53.5367 37.828 53.5788 37.828 53.6289C37.828 53.6658 37.8442 53.6985 37.8762 53.7275C37.9082 53.7565 37.9815 53.7862 38.0982 53.8122C38.3872 53.8788 38.5946 53.9465 38.7195 54.015C38.8444 54.0835 38.9359 54.1678 38.9927 54.269C39.0495 54.3702 39.0781 54.4835 39.0781 54.6084C39.0781 54.7552 39.0405 54.8907 38.9641 55.0149C38.8877 55.1391 38.782 55.2331 38.6457 55.2975C38.5095 55.3618 38.3375 55.3934 38.1302 55.3934C37.7663 55.3934 37.5141 55.3182 37.3738 55.1684C37.2334 55.0186 37.1544 54.8271 37.136 54.5957H37.1356Z" fill="#2C2C2C"/>
<path d="M39.231 53.0617H41.242V53.6281H40.5673V55.3554H39.9057V53.6281H39.231V53.0617Z" fill="#2C2C2C"/>
<path d="M42.6243 54.9764H41.8736L41.769 55.355H41.0935L41.8984 53.0617H42.6198L43.4244 55.355H42.7316L42.6243 54.9764ZM42.4874 54.4808L42.251 53.6563L42.0173 54.4804H42.4874V54.4808Z" fill="#2C2C2C"/>
<path d="M43.2485 53.0617H45.2595V53.6281H44.5848V55.3554H43.9232V53.6281H43.2485V53.0617Z" fill="#2C2C2C"/>
<path d="M45.5271 53.0617H47.3003V53.5517H46.1902V53.9159H47.2198V54.3837H46.1902V54.8357H47.3323V55.355H45.5271V53.0617Z" fill="#2C2C2C"/>
<path d="M47.6205 54.7244H48.2561V55.2486C48.2561 55.4417 48.2185 55.5937 48.1432 55.7051C48.068 55.8165 47.9404 55.9158 47.7594 56.0009L47.6205 55.7224C47.7334 55.666 47.8113 55.6103 47.8539 55.5542C47.8964 55.4981 47.9197 55.4323 47.9246 55.3563H47.6205V54.7244Z" fill="#2C2C2C"/>
<path d="M50.9086 54.9764H50.1579L50.0533 55.355H49.3778L50.1827 53.0617H50.9041L51.7087 55.355H51.0159L50.9086 54.9764ZM50.7716 54.4808L50.5353 53.6563L50.3016 54.4804H50.7716V54.4808Z" fill="#2C2C2C"/>
<path d="M51.8977 55.355V53.0617H53.0003C53.205 53.0617 53.3612 53.0805 53.4692 53.1182C53.5772 53.1558 53.6645 53.225 53.7307 53.327C53.7969 53.429 53.8301 53.5524 53.8301 53.6984C53.8301 53.826 53.8048 53.9355 53.754 54.0281C53.7032 54.1207 53.6336 54.1952 53.5448 54.2524C53.4728 54.2949 53.3944 54.3254 53.3126 54.3427C53.3916 54.3713 53.4488 54.3991 53.485 54.4274C53.5091 54.4462 53.5444 54.4864 53.5907 54.5482C53.637 54.6099 53.6679 54.6573 53.6833 54.6904L54.0035 55.355H53.2562L52.9024 54.6543C52.8576 54.5636 52.8178 54.5049 52.7828 54.4774C52.7361 54.4424 52.6792 54.4238 52.6209 54.4243H52.5622V55.355H51.8977ZM52.5622 53.9912H52.8411C52.8712 53.9912 52.9299 53.9807 53.0165 53.96C53.0605 53.9506 53.0962 53.9261 53.1237 53.8877C53.1512 53.8493 53.1651 53.8049 53.1651 53.7549C53.1651 53.6807 53.1437 53.6243 53.0996 53.5844C53.0556 53.5445 52.9736 53.525 52.8531 53.525H52.5622V53.9912Z" fill="#2C2C2C"/>
<path d="M55.5568 54.4175L56.1364 54.6057C56.0976 54.7795 56.0363 54.9251 55.9523 55.0418C55.8684 55.1585 55.7649 55.2465 55.6408 55.306C55.5166 55.3654 55.3585 55.3952 55.1666 55.3952C54.934 55.3952 54.744 55.359 54.5965 55.2868C54.449 55.2145 54.3218 55.087 54.2145 54.9044C54.1073 54.7219 54.0538 54.4886 54.0538 54.2045C54.0538 53.8244 54.1479 53.5332 54.3364 53.3296C54.525 53.126 54.7918 53.0236 55.1361 53.0236C55.4059 53.0236 55.6178 53.0823 55.7721 53.199C55.9264 53.3156 56.0412 53.4951 56.116 53.7371L55.532 53.8764C55.5184 53.8224 55.4967 53.7707 55.4677 53.7232C55.4308 53.669 55.3852 53.6269 55.3318 53.5979C55.2784 53.5689 55.2185 53.5542 55.1523 53.5542C55.0022 53.5542 54.8874 53.6186 54.8076 53.7477C54.7474 53.8436 54.7173 53.9941 54.7173 54.1992C54.7173 54.4536 54.753 54.6279 54.8249 54.7223C54.8968 54.8168 54.9984 54.8634 55.129 54.8634C55.2554 54.8634 55.351 54.8254 55.4157 54.749C55.4804 54.6726 55.5275 54.5624 55.5568 54.4179V54.4175Z" fill="#2C2C2C"/>
<path d="M56.4307 53.0617H57.0923V53.8644H57.8152V53.0617H58.4798V55.355H57.8152V54.4274H57.0927V55.355H56.4307V53.0617Z" fill="#2C2C2C"/>
<path d="M58.9159 53.0617H59.579V55.355H58.9159V53.0617Z" fill="#2C2C2C"/>
<path d="M59.8729 53.0617H61.884V53.6281H61.2092V55.3554H60.5477V53.6281H59.8729V53.0617Z" fill="#2C2C2C"/>
<path d="M62.1519 53.0617H63.9251V53.5517H62.8149V53.9159H63.8445V54.3837H62.8149V54.8357H63.957V55.355H62.1519V53.0617Z" fill="#2C2C2C"/>
<path d="M65.7089 54.4175L66.2884 54.6057C66.2497 54.7795 66.1883 54.9251 66.1044 55.0418C66.0205 55.1585 65.917 55.2465 65.7928 55.306C65.6686 55.3654 65.5106 55.3952 65.3187 55.3952C65.0861 55.3952 64.8961 55.359 64.7485 55.2868C64.601 55.2145 64.4738 55.087 64.3666 54.9044C64.2593 54.7219 64.2059 54.4886 64.2059 54.2045C64.2059 53.8244 64.3 53.5332 64.4885 53.3296C64.677 53.126 64.9438 53.0236 65.2882 53.0236C65.558 53.0236 65.7699 53.0823 65.9242 53.199C66.0784 53.3156 66.1932 53.4951 66.2681 53.7371L65.6841 53.8764C65.6704 53.8224 65.6487 53.7707 65.6197 53.7232C65.5828 53.669 65.5373 53.6269 65.4839 53.5979C65.4304 53.5689 65.3706 53.5542 65.3044 53.5542C65.1542 53.5542 65.0394 53.6186 64.9597 53.7477C64.8994 53.8436 64.8693 53.9941 64.8693 54.1992C64.8693 54.4536 64.9051 54.6279 64.977 54.7223C65.0488 54.8168 65.1504 54.8634 65.281 54.8634C65.4075 54.8634 65.5031 54.8254 65.5678 54.749C65.6325 54.6726 65.6795 54.5624 65.7089 54.4179V54.4175Z" fill="#2C2C2C"/>
<path d="M66.4292 53.0617H68.4402V53.6281H67.7655V55.3554H67.1039V53.6281H66.4292V53.0617Z" fill="#2C2C2C"/>
<path d="M70.1028 53.0617H70.7633V54.4281C70.7633 54.5636 70.7433 54.6915 70.7038 54.812C70.6643 54.9324 70.6026 55.0377 70.5183 55.1277C70.434 55.2176 70.3459 55.2812 70.2534 55.3177C70.1251 55.3685 69.9704 55.3941 69.7905 55.3941C69.6863 55.3941 69.5722 55.3866 69.4496 55.3708C69.3269 55.355 69.2234 55.3241 69.1406 55.2778C69.0578 55.2315 68.9822 55.1657 68.9133 55.0803C68.8444 54.9948 68.7978 54.9064 68.7726 54.8157C68.7347 54.6899 68.7141 54.5595 68.7112 54.4281V53.0621H69.3713V54.4609C69.3713 54.5858 69.4037 54.6833 69.4684 54.754C69.5331 54.8248 69.6227 54.8594 69.7378 54.8594C69.853 54.8594 69.941 54.8244 70.0058 54.7555C70.0705 54.6866 70.1028 54.5877 70.1028 54.4609V53.0617Z" fill="#2C2C2C"/>
<path d="M71.1799 55.355V53.0617H72.2825C72.4872 53.0617 72.6434 53.0805 72.7514 53.1182C72.8594 53.1558 72.9467 53.225 73.0129 53.327C73.0791 53.429 73.1122 53.5524 73.1122 53.6984C73.1122 53.826 73.087 53.9355 73.0362 54.0281C72.9854 54.1207 72.9158 54.1952 72.827 54.2524C72.755 54.2949 72.6766 54.3254 72.5948 54.3427C72.6738 54.3713 72.731 54.3991 72.7672 54.4274C72.7912 54.4462 72.8266 54.4864 72.8729 54.5482C72.9192 54.6099 72.95 54.6573 72.9655 54.6904L73.2857 55.355H72.5384L72.1846 54.6543C72.1398 54.5636 72.1 54.5049 72.065 54.4774C72.0183 54.4424 71.9614 54.4238 71.9031 54.4243H71.8444V55.355H71.1799ZM71.8444 53.9912H72.1233C72.1534 53.9912 72.2121 53.9807 72.2986 53.96C72.3427 53.9506 72.3784 53.9261 72.4059 53.8877C72.4334 53.8493 72.4473 53.8049 72.4473 53.7549C72.4473 53.6807 72.4258 53.6243 72.3818 53.5844C72.3378 53.5445 72.2557 53.525 72.1353 53.525H71.8444V53.9912Z" fill="#2C2C2C"/>
<path d="M73.4662 53.0617H75.2394V53.5517H74.1293V53.9159H75.1589V54.3837H74.1293V54.8357H75.2714V55.355H73.4662V53.0617Z" fill="#2C2C2C"/>
<path d="M77.8812 54.9764H77.1305L77.0259 55.355H76.3504L77.1553 53.0617H77.8767L78.6813 55.355H77.9885L77.8812 54.9764ZM77.7443 54.4808L77.5079 53.6563L77.2742 54.4804H77.7443V54.4808Z" fill="#2C2C2C"/>
<path d="M78.8661 53.0617H79.484L80.2901 54.3306V53.0617H80.9136V55.355H80.2901L79.4885 54.0958V55.355H78.8657V53.0617H78.8661Z" fill="#2C2C2C"/>
<path d="M81.3324 53.0617H82.3149C82.5087 53.0617 82.6653 53.0899 82.7846 53.1464C82.9039 53.2028 83.0028 53.2834 83.0803 53.3887C83.1579 53.4941 83.2147 53.6164 83.2497 53.7564C83.2847 53.8964 83.3024 54.0443 83.3024 54.2004C83.3024 54.4458 83.276 54.6358 83.2241 54.7706C83.1722 54.9053 83.0999 55.0189 83.0073 55.1104C82.9148 55.2018 82.8154 55.2624 82.7093 55.2925C82.5644 55.3339 82.4331 55.3554 82.3149 55.3554H81.3324V53.0621V53.0617ZM81.9939 53.581V54.8342H82.1557C82.2942 54.8342 82.3928 54.8176 82.4508 54.7852C82.5087 54.7529 82.555 54.6949 82.5881 54.6129C82.6212 54.5308 82.6378 54.3984 82.6378 54.2147C82.6378 53.9716 82.6009 53.8057 82.5268 53.7157C82.4527 53.6258 82.3303 53.5814 82.1587 53.5814H81.9939V53.581Z" fill="#2C2C2C"/>
<path d="M84.5962 53.0617H85.5788C85.7726 53.0617 85.9291 53.0899 86.0484 53.1464C86.1677 53.2028 86.2667 53.2834 86.3442 53.3887C86.4217 53.4941 86.4786 53.6164 86.5136 53.7564C86.5486 53.8964 86.5663 54.0443 86.5663 54.2004C86.5663 54.4458 86.5399 54.6358 86.488 54.7706C86.436 54.9053 86.3638 55.0189 86.2712 55.1104C86.1786 55.2018 86.0793 55.2624 85.9732 55.2925C85.8283 55.3339 85.697 55.3554 85.5788 55.3554H84.5962V53.0621V53.0617ZM85.2578 53.581V54.8342H85.4196C85.5581 54.8342 85.6567 54.8176 85.7146 54.7852C85.7726 54.7529 85.8189 54.6949 85.852 54.6129C85.8851 54.5308 85.9017 54.3984 85.9017 54.2147C85.9017 53.9716 85.8648 53.8057 85.7907 53.7157C85.7165 53.6258 85.5942 53.5814 85.4226 53.5814H85.2578V53.581Z" fill="#2C2C2C"/>
<path d="M86.882 53.0617H88.6552V53.5517H87.5451V53.9159H88.5747V54.3837H87.5451V54.8357H88.6872V55.355H86.882V53.0617Z" fill="#2C2C2C"/>
<path d="M88.8983 54.5957L89.5279 54.5535C89.5414 54.663 89.5693 54.7466 89.6111 54.8038C89.6792 54.8967 89.7766 54.943 89.9031 54.943C89.9975 54.943 90.0705 54.9193 90.1213 54.8722C90.1721 54.8252 90.1981 54.7695 90.1981 54.7067C90.1981 54.6472 90.1737 54.5942 90.1251 54.5471C90.0766 54.5001 89.9633 54.456 89.7864 54.4143C89.4963 54.3447 89.2897 54.2517 89.1655 54.1358C89.0413 54.0199 88.9788 53.8724 88.9788 53.6933C88.9788 53.5751 89.0108 53.4641 89.0744 53.3591C89.138 53.2541 89.234 53.1721 89.3623 53.1118C89.4906 53.0516 89.6656 53.0223 89.8888 53.0223C90.1624 53.0223 90.3708 53.0765 90.5146 53.1856C90.6583 53.2947 90.7434 53.4678 90.7705 53.7057L90.1473 53.7448C90.1308 53.6417 90.0958 53.5664 90.0427 53.5194C89.9896 53.4724 89.9163 53.449 89.8229 53.449C89.7462 53.449 89.6882 53.4667 89.6491 53.5017C89.6099 53.5367 89.5907 53.5788 89.5907 53.6289C89.5907 53.6658 89.6069 53.6985 89.6389 53.7275C89.6709 53.7565 89.7443 53.7862 89.8609 53.8122C90.1499 53.8788 90.3573 53.9465 90.4822 54.015C90.6072 54.0835 90.6986 54.1678 90.7554 54.269C90.8123 54.3702 90.8409 54.4835 90.8409 54.6084C90.8409 54.7552 90.8032 54.8907 90.7268 55.0149C90.6504 55.1391 90.5447 55.2331 90.4085 55.2975C90.2722 55.3618 90.1003 55.3934 89.8929 55.3934C89.529 55.3934 89.2769 55.3182 89.1365 55.1684C88.9962 55.0186 88.9171 54.8271 88.8987 54.5957H88.8983Z" fill="#2C2C2C"/>
<path d="M91.1701 53.0617H91.8332V55.355H91.1701V53.0617Z" fill="#2C2C2C"/>
<path d="M93.3539 54.5255V54.0483H94.3763V55.026C94.1807 55.169 94.0076 55.2661 93.857 55.318C93.7065 55.37 93.5281 55.3952 93.3219 55.3952C93.0675 55.3952 92.8605 55.3489 92.7002 55.2559C92.5399 55.163 92.4161 55.0253 92.3277 54.8416C92.2392 54.658 92.196 54.4472 92.196 54.2094C92.196 53.9591 92.2441 53.7416 92.3405 53.5565C92.4368 53.3713 92.5779 53.231 92.7638 53.135C92.9091 53.0609 93.104 53.0236 93.3494 53.0236C93.5865 53.0236 93.7633 53.0466 93.8804 53.0925C93.9974 53.1384 94.0952 53.2095 94.1728 53.3062C94.2503 53.403 94.3082 53.5249 94.347 53.6731L93.7088 53.7951C93.6824 53.7085 93.638 53.6423 93.5752 53.5964C93.5123 53.5505 93.4322 53.5275 93.3351 53.5275C93.1898 53.5275 93.0743 53.5817 92.9881 53.6893C92.9019 53.797 92.859 53.9678 92.859 54.2019C92.859 54.4499 92.9023 54.6271 92.9896 54.7336C93.0769 54.8401 93.1981 54.8932 93.3539 54.8932C93.428 54.8932 93.4984 54.8815 93.5658 54.8585C93.6331 54.8356 93.7099 54.7968 93.7964 54.7415V54.5255H93.3539ZM94.7436 53.0628H95.3612L96.1676 54.3317V53.0628H96.7908V55.356H96.1676L95.3661 54.0969V55.356H94.7436V53.0628Z" fill="#2C2C2C"/>
<path d="M98.1946 53.0617H98.8577V55.355H98.1946V53.0617Z" fill="#2C2C2C"/>
<path d="M99.3064 53.0617H99.9243L100.73 54.3306V53.0617H101.354V55.355H100.73L99.9288 54.0958V55.355H99.306V53.0617H99.3064Z" fill="#2C2C2C"/>
<path d="M104.048 54.9764H103.297L103.192 55.355H102.517L103.321 53.0617H104.043L104.847 55.355H104.155L104.047 54.9764H104.048ZM103.91 54.4808L103.674 53.6563L103.44 54.4804H103.911L103.91 54.4808Z" fill="#2C2C2C"/>
<path d="M104.913 54.5957L105.542 54.5535C105.556 54.663 105.584 54.7466 105.625 54.8038C105.693 54.8967 105.791 54.943 105.917 54.943C106.012 54.943 106.085 54.9193 106.136 54.8722C106.186 54.8252 106.212 54.7695 106.212 54.7067C106.212 54.6472 106.188 54.5942 106.139 54.5471C106.09 54.5001 105.978 54.456 105.801 54.4143C105.511 54.3447 105.304 54.2517 105.18 54.1358C105.056 54.0199 104.993 53.8724 104.993 53.6933C104.993 53.5695 105.029 53.4483 105.097 53.345C105.165 53.2416 105.262 53.1605 105.376 53.1118C105.504 53.0516 105.68 53.0223 105.903 53.0223C106.177 53.0223 106.385 53.0765 106.529 53.1856C106.673 53.2947 106.758 53.4678 106.785 53.7057L106.162 53.7448C106.145 53.6417 106.11 53.5664 106.057 53.5194C106.004 53.4724 105.93 53.449 105.837 53.449C105.76 53.449 105.702 53.4667 105.663 53.5017C105.625 53.5367 105.605 53.5788 105.605 53.6289C105.605 53.6658 105.621 53.6985 105.653 53.7275C105.685 53.7565 105.758 53.7862 105.875 53.8122C106.164 53.8788 106.372 53.9465 106.497 54.015C106.622 54.0835 106.713 54.1678 106.769 54.269C106.826 54.3702 106.855 54.4835 106.855 54.6084C106.855 54.7552 106.817 54.8907 106.741 55.0149C106.665 55.1391 106.559 55.2331 106.423 55.2975C106.286 55.3618 106.114 55.3934 105.907 55.3934C105.543 55.3934 105.291 55.3182 105.151 55.1684C105.01 55.0186 104.931 54.8271 104.913 54.5957Z" fill="#2C2C2C"/>
<path d="M107.184 53.0617H107.847V55.355H107.184V53.0617Z" fill="#2C2C2C"/>
<path d="M109.608 54.9764H108.857L108.753 55.355H108.077L108.882 53.0617H109.603L110.408 55.355H109.715L109.608 54.9764H109.608ZM109.471 54.4808L109.234 53.6563L109.001 54.4804H109.471L109.471 54.4808Z" fill="#2C2C2C"/>
<path d="M111.553 53.0617H112.653C112.892 53.0617 113.072 53.123 113.191 53.245C113.31 53.3669 113.37 53.5404 113.37 53.7658C113.37 53.9972 113.305 54.1782 113.175 54.3084C113.045 54.4386 112.847 54.5041 112.58 54.5041H112.218V55.355H111.553V53.0617ZM112.218 54.0394H112.38C112.508 54.0394 112.597 54.0157 112.648 53.9686C112.7 53.9216 112.726 53.8603 112.726 53.7861C112.726 53.7142 112.703 53.6533 112.659 53.6032C112.614 53.5532 112.53 53.528 112.406 53.528H112.218V54.0394Z" fill="#2C2C2C"/>
<path d="M114.748 54.9764H113.997L113.893 55.355H113.217L114.022 53.0617H114.744L115.548 55.355H114.855L114.748 54.9764H114.748ZM114.611 54.4808L114.374 53.6563L114.141 54.4804H114.611L114.611 54.4808Z" fill="#2C2C2C"/>
<path d="M117.1 54.4175L117.679 54.6057C117.641 54.7795 117.579 54.9251 117.495 55.0418C117.411 55.1585 117.307 55.2465 117.184 55.306C117.06 55.3654 116.901 55.3952 116.709 55.3952C116.477 55.3952 116.287 55.359 116.139 55.2868C115.991 55.2145 115.865 55.087 115.757 54.9044C115.65 54.7219 115.597 54.4886 115.597 54.2045C115.597 53.8244 115.691 53.5332 115.879 53.3296C116.068 53.126 116.335 53.0236 116.679 53.0236C116.949 53.0236 117.161 53.0823 117.315 53.199C117.469 53.3156 117.584 53.4951 117.659 53.7371L117.075 53.8764C117.061 53.8223 117.04 53.7707 117.011 53.7232C116.973 53.669 116.928 53.6269 116.875 53.5979C116.822 53.5689 116.761 53.5542 116.695 53.5542C116.545 53.5542 116.43 53.6186 116.35 53.7477C116.29 53.8436 116.26 53.9941 116.26 54.1992C116.26 54.4536 116.296 54.6279 116.368 54.7223C116.44 54.8168 116.541 54.8634 116.672 54.8634C116.798 54.8634 116.894 54.8254 116.959 54.749C117.024 54.6726 117.07 54.5624 117.1 54.4179V54.4175Z" fill="#2C2C2C"/>
<path d="M117.997 53.0617H118.66V55.355H117.997V53.0617Z" fill="#2C2C2C"/>
<path d="M119.108 53.0617H120.743V53.5547H119.772V53.9551H120.602V54.418H119.772V55.355H119.108V53.0617Z" fill="#2C2C2C"/>
<path d="M121.096 53.0617H121.759V55.355H121.096V53.0617Z" fill="#2C2C2C"/>
<path d="M123.629 54.4175L124.209 54.6057C124.17 54.7795 124.108 54.9251 124.025 55.0418C123.941 55.1585 123.837 55.2465 123.713 55.306C123.589 55.3654 123.431 55.3952 123.239 55.3952C123.006 55.3952 122.817 55.359 122.669 55.2868C122.521 55.2145 122.394 55.087 122.287 54.9044C122.18 54.7219 122.126 54.4886 122.126 54.2045C122.126 53.8244 122.221 53.5332 122.409 53.3296C122.597 53.126 122.864 53.0236 123.208 53.0236C123.478 53.0236 123.69 53.0823 123.844 53.199C123.999 53.3156 124.113 53.4951 124.188 53.7371L123.604 53.8764C123.591 53.8223 123.569 53.7707 123.54 53.7232C123.503 53.669 123.457 53.6269 123.404 53.5979C123.351 53.5689 123.291 53.5542 123.225 53.5542C123.075 53.5542 122.96 53.6186 122.88 53.7477C122.82 53.8436 122.79 53.9941 122.79 54.1992C122.79 54.4536 122.825 54.6279 122.897 54.7223C122.969 54.8168 123.07 54.8634 123.201 54.8634C123.328 54.8634 123.423 54.8254 123.488 54.749C123.553 54.6726 123.6 54.5624 123.629 54.4179V54.4175Z" fill="#2C2C2C"/>
<path d="M81.2912 32.0069C81.0082 32.0069 80.8216 32.0664 80.7358 32.1883C80.6466 32.311 80.6041 32.5609 80.6041 32.9402C80.6041 33.3331 80.5401 33.8279 80.4159 34.4251C80.3162 34.8902 80.2661 35.2128 80.2661 35.3851C80.2661 35.6022 80.341 35.714 80.49 35.7219C80.639 35.7298 80.7538 35.5691 80.8291 35.2455C80.995 34.4959 81.231 33.9856 81.5354 33.7154C81.8399 33.4452 82.3295 33.309 83.005 33.309H86.3203C86.6349 33.309 86.837 33.3504 86.925 33.4316C87.0135 33.5182 87.0575 33.7094 87.0575 34.0093L87.0688 34.3352V46.7517C87.0688 47.4528 86.9585 47.9398 86.735 48.2115C86.5073 48.4835 86.0738 48.6619 85.4311 48.7432C85.1571 48.7789 85.0194 48.8599 85.0194 48.9886C85.0194 49.1669 85.1443 49.2595 85.3957 49.2595C85.48 49.2595 85.7596 49.2328 86.2349 49.1805L87.1234 49.1451L88.1018 49.1319L89.0181 49.1447L90.1437 49.1809L90.7582 49.2591C90.9934 49.2591 91.1097 49.1669 91.1097 48.9886C91.1097 48.8493 90.9652 48.7545 90.6731 48.7075C89.6225 48.5227 89.0753 47.9435 89.035 46.9651L89.0234 46.474V34.1963C89.0234 33.805 89.0697 33.5581 89.1656 33.458C89.2616 33.3579 89.493 33.3086 89.8584 33.3086H93.3762C94.075 33.3086 94.5466 33.397 94.7882 33.5769C95.0301 33.7545 95.2059 34.141 95.3139 34.7329C95.3666 35.0016 95.4644 35.1292 95.6131 35.1224C95.7974 35.1063 95.884 34.9727 95.878 34.722L95.8023 34.1132C95.7613 33.8881 95.7399 33.531 95.7399 33.0429C95.7399 32.5507 95.6917 32.2579 95.595 32.1559C95.4994 32.057 95.2224 32.0069 94.7641 32.0069H81.2912ZM69.7515 40.0823C69.6472 39.9762 69.596 39.7285 69.596 39.3334V34.24L69.5814 33.8279C69.5814 33.397 69.6766 33.1031 69.8651 32.9398C70.0536 32.7765 70.3931 32.6952 70.8842 32.6952C72.2062 32.6952 73.2934 33.0869 74.1453 33.8678C74.9996 34.6509 75.4248 35.6485 75.4248 36.8633C75.4248 37.9079 75.1113 38.7336 74.4848 39.3334C73.8575 39.9374 72.9964 40.2388 71.9014 40.2388H70.4864C70.1007 40.2388 69.8561 40.1861 69.7515 40.0823ZM69.6837 31.9083L67.7201 31.9953C67.2761 31.9953 66.905 31.9817 66.6058 31.9569L65.7294 31.9079C65.4464 31.9079 65.3049 31.993 65.3049 32.1638C65.3049 32.3106 65.4385 32.4092 65.7057 32.457L66.2916 32.5447C67.2015 32.6963 67.6569 33.4226 67.6569 34.725L67.681 36.0279V45.0229C67.681 46.4368 67.5771 47.3802 67.369 47.8604C67.1609 48.3405 66.7217 48.6431 66.0549 48.7688C65.8449 48.8087 65.7411 48.8907 65.7411 49.0149C65.7411 49.1861 65.8449 49.2685 66.0549 49.2685C66.1795 49.2685 66.4056 49.252 66.7297 49.2208C67.0705 49.1815 67.4132 49.1611 67.7562 49.1594L68.4054 49.1447L69.6081 49.1598L71.1954 49.2121L71.9341 49.2685C72.225 49.2685 72.3631 49.1873 72.3458 49.0247C72.3375 48.8715 72.184 48.7786 71.8844 48.7432C71.1337 48.6679 70.5794 48.4881 70.2211 48.2047C69.9532 47.9951 69.7846 47.7576 69.7131 47.4942C69.6423 47.233 69.6081 46.7401 69.6081 46.0209L69.596 45.5182V41.6026C69.596 41.3945 69.6453 41.2617 69.7432 41.2022L70.0209 41.1506H71.6846C72.1328 41.1506 72.4587 41.3222 72.6593 41.6651L72.8346 41.9387L75.9501 46.6945C76.5666 47.6278 77.1728 48.2988 77.7704 48.7123C78.3657 49.1263 79.0378 49.3333 79.7893 49.3333C80.2484 49.3333 80.6598 49.2802 81.0225 49.1801C81.3853 49.08 81.5693 48.9618 81.5795 48.8339C81.587 48.7259 81.5151 48.6646 81.3661 48.657L80.9672 48.6326C80.0655 48.5742 79.0807 47.761 78.0124 46.1993L77.6131 45.6006L74.1604 40.509C76.2215 39.4828 77.2507 38.0306 77.2507 36.152C77.2507 34.725 76.763 33.6492 75.7872 32.927C74.8114 32.2049 73.366 31.8436 71.4449 31.8436C70.8573 31.846 70.2699 31.8676 69.6837 31.9083ZM6.23831 40.2599C6.13482 40.1545 6.08252 39.9062 6.08252 39.511V34.418L6.07123 34.0059C6.07123 33.5758 6.16455 33.2811 6.35271 33.1186C6.53974 32.9537 6.88031 32.8739 7.3729 32.8739C8.6949 32.8739 9.7802 33.2653 10.6318 34.0462C11.4853 34.8289 11.9124 35.8269 11.9124 37.0413C11.9124 38.0859 11.5993 38.9116 10.9727 39.5114C10.3443 40.1154 9.48442 40.4172 8.39046 40.4172H6.97175C6.58829 40.4172 6.3433 40.3638 6.23831 40.2599ZM6.16945 32.0867L4.20583 32.1732C3.8348 32.1754 3.46383 32.1627 3.09381 32.1352L2.21662 32.0863C1.93363 32.0863 1.79138 32.1714 1.79138 32.3422C1.79138 32.489 1.92422 32.5868 2.19329 32.635L2.77959 32.723C3.68914 32.8747 4.14486 33.6006 4.14486 34.903L4.16932 36.2062V45.2013C4.16932 46.6151 4.06396 47.5586 3.85585 48.0387C3.64775 48.5189 3.20972 48.8215 2.54176 48.9472C2.33328 48.9867 2.22904 49.0687 2.22904 49.1933C2.22904 49.3641 2.33328 49.4465 2.54138 49.4465C2.66707 49.4465 2.89248 49.4304 3.21837 49.3987C3.55882 49.3596 3.90116 49.3393 4.24384 49.3378L4.89373 49.3227L6.09531 49.3378L7.68261 49.3905L8.42057 49.4469C8.71485 49.4469 8.85108 49.3653 8.83452 49.2031C8.82661 49.0499 8.67308 48.957 8.37165 48.9216C7.62165 48.8463 7.06658 48.6664 6.70833 48.3831C6.44265 48.1735 6.2718 47.9356 6.20218 47.6726C6.12993 47.411 6.09531 46.9184 6.09531 46.1993L6.08252 45.6962V41.781C6.08252 41.5729 6.13181 41.44 6.23342 41.3802L6.50813 41.3286H8.17145C8.62115 41.3286 8.94704 41.5006 9.14724 41.8431L9.32222 42.1167L12.4366 46.8725C13.0549 47.8062 13.6604 48.4771 14.2561 48.8907C14.8518 49.3043 15.5269 49.5116 16.2769 49.5116C16.7368 49.5116 17.1473 49.4582 17.5094 49.3581C17.8714 49.258 18.058 49.1402 18.0663 49.0119C18.0746 48.9039 18.005 48.8429 17.8533 48.835L17.4544 48.8106C16.5524 48.7526 15.5691 47.9394 14.5015 46.3773L14.1007 45.779L10.648 40.6874C12.7091 39.6612 13.739 38.209 13.739 36.3304C13.739 34.903 13.251 33.8275 12.2752 33.1054C11.2994 32.3832 9.85245 32.022 7.93286 32.022C7.42484 32.022 6.83778 32.0427 6.16945 32.0867ZM38.2609 32.092L35.9372 32.2252C35.5959 32.2252 35.1612 32.1891 34.634 32.1145C34.3668 32.0743 34.1542 32.0521 33.998 32.0521C33.68 32.0521 33.5171 32.1499 33.5115 32.3448C33.5002 32.5003 33.6085 32.5868 33.8351 32.6034C34.6683 32.6941 35.1906 32.971 35.3987 33.4339C35.6068 33.8968 35.7103 35.0031 35.7103 36.7545V44.3396C35.7103 45.9889 35.5929 47.1303 35.3547 47.7629C35.1164 48.3989 34.6735 48.7624 34.0225 48.8651C33.7482 48.9046 33.6085 49.0036 33.6085 49.1587C33.6085 49.3205 33.7184 49.401 33.9341 49.401C34.0853 49.401 34.3217 49.3796 34.6472 49.3404C34.8986 49.3073 35.2681 49.29 35.7599 49.29L36.7365 49.2757L37.6242 49.3039L38.9255 49.3269L39.7636 49.3796C40.0722 49.3796 40.2189 49.2712 40.2024 49.0597C40.1941 48.9114 40.0635 48.8377 39.8144 48.8377C39.5811 48.8377 39.2337 48.7763 38.7754 48.651C38.1157 48.4839 37.7431 47.895 37.6487 46.8823L37.6133 45.8347L37.6242 44.6199V34.1798L37.637 33.817C37.637 33.4644 37.7002 33.2288 37.8244 33.102C37.9497 32.9767 38.1789 32.9161 38.5104 32.9161C39.9675 32.9161 41.171 33.3285 42.1189 34.1561C43.0669 34.9836 43.5414 36.0316 43.5414 37.2953C43.5414 38.3896 43.1813 39.2687 42.4629 39.9287C41.7426 40.5881 40.7841 40.9222 39.5856 40.9222C39.1607 40.9222 38.8518 40.8906 38.6636 40.8334C38.5821 40.8119 38.4984 40.7995 38.4141 40.7965C38.2711 40.7965 38.1909 40.8458 38.1759 40.9448C38.1593 41.075 38.3686 41.1969 38.807 41.311C39.2454 41.425 39.7267 41.4826 40.2505 41.4826C41.3693 41.4826 42.4283 41.1326 43.43 40.4319C44.7629 39.4918 45.4305 38.2018 45.4305 36.5656C45.4305 35.2165 44.8849 34.1222 43.7977 33.2834C42.7105 32.4446 41.2941 32.0254 39.551 32.0254C39.2175 32.0254 38.7885 32.0483 38.2609 32.092ZM50.9658 45.6514C49.5079 43.9218 48.7794 41.7926 48.7794 39.2709C48.7794 37.0639 49.3487 35.3087 50.4893 34.0063C51.6262 32.7031 53.1668 32.0498 55.1022 32.0498C57.3564 32.0498 59.2391 32.8815 60.7489 34.544C62.2601 36.2032 63.0162 38.2794 63.0162 40.7702C63.0162 42.9351 62.3851 44.7215 61.1244 46.1335C59.8656 47.5439 58.2659 48.2495 56.3298 48.2495C54.2085 48.2495 52.4229 47.3851 50.9658 45.6514ZM52.2196 31.9444C51.0184 32.4163 50.025 33.0501 49.2419 33.8516C48.5001 34.6095 47.9101 35.5537 47.4732 36.6815C47.0348 37.8112 46.8157 38.9515 46.8157 40.1C46.8157 42.7504 47.6474 44.8935 49.3088 46.5244C50.9752 48.1588 53.154 48.9776 55.8481 48.9776C58.4736 48.9776 60.6303 48.1208 62.3139 46.4138C63.9976 44.7068 64.8432 42.5186 64.8432 39.8509C64.8432 37.334 64.0062 35.2711 62.3343 33.6578C60.6623 32.0445 58.5222 31.2389 55.9106 31.2389C54.6507 31.2389 53.4201 31.4729 52.2196 31.9444ZM19.0173 32.3283C19.0173 32.4837 19.1377 32.5609 19.38 32.5609C20.1398 32.5609 20.6497 32.7652 20.9143 33.1773C21.1754 33.5931 21.3064 34.398 21.3064 35.5921V46.1775L21.2947 46.9941C21.2947 47.9966 20.9956 48.5791 20.3942 48.747L19.9178 48.8855C19.7014 48.9415 19.5942 49.0401 19.5942 49.179C19.5942 49.3577 19.7274 49.4462 19.993 49.4462C20.1097 49.4462 20.3272 49.4168 20.6441 49.3585C21.2435 49.2614 22.2735 49.2106 23.7314 49.2106C24.776 49.2106 26.0931 49.2847 27.685 49.4371C28.0092 49.4645 28.3343 49.4804 28.6596 49.4845C29.7784 49.4845 30.7049 49.0375 31.4387 48.1373C32.0468 47.3911 32.352 46.7487 32.352 46.208C32.352 45.9825 32.2753 45.8742 32.1213 45.8843C32.0284 45.8911 31.9336 45.966 31.8395 46.1082C30.907 47.5857 28.8022 48.3217 25.5324 48.3217C24.4983 48.3217 23.8552 48.2325 23.6023 48.0583C23.3464 47.8822 23.2207 47.4412 23.2207 46.7307V42.1208L23.2075 41.7042C23.2075 41.4577 23.2775 41.2857 23.4134 41.2033C23.5492 41.1209 23.8247 41.078 24.2315 41.078H26.988C27.7068 41.078 28.2141 41.1781 28.5132 41.3802C28.8109 41.58 29.0115 41.959 29.1116 42.5163L29.1868 42.8655C29.2207 43.0518 29.3298 43.1421 29.5067 43.1421C29.6696 43.1421 29.7509 43.0386 29.7509 42.8305C29.7509 42.7571 29.7423 42.6348 29.7246 42.4696C29.6752 41.9676 29.6505 41.4635 29.6505 40.9591C29.6505 40.293 29.687 39.5554 29.7611 38.7528C29.7724 38.6271 29.7739 38.5352 29.7739 38.4754C29.7739 38.2579 29.6956 38.1469 29.5312 38.1386C29.3599 38.13 29.2553 38.2308 29.2117 38.4385C29.1029 38.9891 28.9821 39.3417 28.8504 39.4892C28.7149 39.6397 28.4244 39.762 27.9728 39.8542C27.4659 39.9532 26.7731 40.0059 25.8971 40.0059H23.9726C23.6125 40.0059 23.3976 39.9645 23.3268 39.884C23.2561 39.8034 23.2207 39.5739 23.2207 39.1878V34.1406C23.2207 33.6981 23.296 33.4098 23.4439 33.2815C23.5948 33.1517 23.9274 33.0866 24.443 33.0866H26.4059C27.694 33.0866 28.5813 33.1483 29.0653 33.2736C29.5492 33.3989 29.8668 33.6473 30.0268 34.0247C30.1239 34.2674 30.1747 34.5211 30.1747 34.7849V35.113C30.1747 35.3701 30.2559 35.4965 30.4174 35.4875C30.5626 35.4792 30.6556 35.4148 30.6977 35.2925C30.7414 35.1744 30.7835 34.8707 30.8257 34.389L30.8765 33.6571C30.9171 33.1088 30.9518 32.7765 30.9766 32.6572C31.0014 32.542 31.0142 32.4476 31.0142 32.3712C31.0142 32.1307 30.8765 32.008 30.6003 32.008C30.493 32.008 30.3259 32.0276 30.1009 32.0585C29.9903 32.0765 29.6926 32.0927 29.1989 32.1093L27.4238 32.1977C26.638 32.2323 25.7405 32.2481 24.7218 32.2481C23.045 32.2481 21.6127 32.1827 20.4175 32.0468C20.0702 32.0054 19.7898 31.9855 19.5806 31.9855C19.2047 31.9855 19.0173 32.0995 19.0173 32.329M52.6362 11.6166L50.3125 11.7498C49.9708 11.7498 49.5365 11.7141 49.0093 11.6392C48.7421 11.5989 48.5295 11.5771 48.3733 11.5771C48.055 11.5771 47.8924 11.6749 47.8867 11.8695C47.8755 12.0249 47.9842 12.1115 48.2104 12.128C49.0435 12.2183 49.5659 12.4957 49.774 12.9585C49.9821 13.4214 50.0856 14.5278 50.0856 16.2792V23.8638C50.0856 25.5136 49.9681 26.6549 49.7296 27.2872C49.4917 27.9231 49.0484 28.287 48.3978 28.3898C48.1234 28.4293 47.9838 28.5282 47.9838 28.6833C47.9838 28.8451 48.0937 28.9256 48.309 28.9256C48.4602 28.9256 48.6973 28.9042 49.0225 28.8651C49.2738 28.8316 49.6434 28.815 50.1352 28.815L51.1121 28.8007L51.9995 28.8289L53.3012 28.8515L54.1392 28.9042C54.4478 28.9042 54.5946 28.7962 54.5776 28.5843C54.5697 28.4361 54.4384 28.3623 54.19 28.3623C53.9567 28.3623 53.6086 28.301 53.1503 28.1756C52.491 28.0093 52.1188 27.4196 52.024 26.4073L51.9886 25.3593L51.9995 24.1449V13.7044L52.0123 13.3416C52.0123 12.989 52.0755 12.7534 52.2001 12.6266C52.325 12.5013 52.5542 12.4404 52.8861 12.4404C54.3428 12.4404 55.5463 12.8532 56.4942 13.6811C57.4422 14.509 57.9167 15.5563 57.9167 16.8195C57.9167 17.9146 57.5566 18.7937 56.8382 19.4538C56.1179 20.1127 55.1594 20.4472 53.9609 20.4472C53.536 20.4472 53.227 20.4152 53.0385 20.358C52.9572 20.3367 52.8738 20.3244 52.7898 20.3215C52.6468 20.3215 52.5666 20.3705 52.5512 20.4694C52.5346 20.5996 52.7439 20.7216 53.1826 20.8356C53.6214 20.9496 54.102 21.0076 54.6262 21.0076C55.745 21.0076 56.8036 20.6576 57.8049 19.9565C59.1386 19.0157 59.8058 17.7261 59.8058 16.0902C59.8058 14.7411 59.2601 13.6468 58.1733 12.808C57.0865 11.9692 55.6693 11.55 53.9259 11.55C53.5928 11.55 53.1638 11.5733 52.6362 11.6166ZM19.2893 19.8933C19.1836 19.7902 19.1324 19.5403 19.1324 19.1471V14.051L19.1189 13.6389C19.1189 13.2099 19.2148 12.9168 19.4003 12.7534C19.5885 12.5897 19.9313 12.507 20.4247 12.507C21.744 12.507 22.8297 12.8998 23.6828 13.6792C24.5363 14.4634 24.9604 15.461 24.9604 16.6735C24.9604 17.7186 24.6473 18.5438 24.0204 19.1471C23.3946 19.7477 22.5339 20.0491 21.4381 20.0491H20.0216C19.6374 20.0491 19.3917 19.9983 19.2893 19.8933ZM19.2208 11.7186L17.2553 11.8063C16.8132 11.8063 16.4433 11.7942 16.143 11.7675L15.2669 11.7186C14.9839 11.7186 14.8417 11.8044 14.8417 11.976C14.8417 12.1227 14.9752 12.2206 15.2413 12.2676L15.8291 12.3568C16.7383 12.507 17.194 13.2348 17.194 14.5376L17.2185 15.8381V24.8351C17.2185 26.2493 17.1139 27.1923 16.9054 27.6736C16.6976 28.1523 16.2589 28.4545 15.592 28.5787C15.3835 28.6227 15.2778 28.7032 15.2778 28.8255C15.2778 28.9968 15.3835 29.0826 15.5924 29.0826C15.717 29.0826 15.9416 29.0645 16.2671 29.031L17.2918 28.9704L17.9436 28.9572L19.1445 28.9704L20.7329 29.0269L21.4708 29.0826C21.7632 29.0826 21.9002 28.9998 21.884 28.8387C21.8761 28.6814 21.7207 28.5896 21.4197 28.5565C20.6708 28.482 20.1157 28.301 19.7567 28.0168C19.4907 27.8057 19.3213 27.5713 19.2506 27.3079C19.1798 27.0444 19.1445 26.5526 19.1445 25.8316L19.1328 25.3326V21.4162C19.1328 21.2033 19.1802 21.0734 19.2814 21.0125L19.558 20.9647H21.2213C21.6733 20.9647 21.9969 21.1329 22.1968 21.4753L22.3725 21.7519L25.4869 26.5044C26.1033 27.4377 26.7114 28.1098 27.3068 28.526C27.9025 28.9369 28.5772 29.1435 29.3257 29.1435C29.7855 29.1435 30.1965 29.0908 30.56 28.9911C30.9213 28.888 31.1072 28.7751 31.1151 28.6464C31.1241 28.5365 31.0549 28.4771 30.9025 28.468L30.5032 28.444C29.6034 28.3879 28.6178 27.5747 27.5499 26.0114L27.1495 25.4108L23.6983 20.3212C25.7571 19.2953 26.7878 17.8424 26.7878 15.9657C26.7878 14.5357 26.2997 13.4602 25.3251 12.7407C24.3489 12.017 22.9031 11.6561 20.9824 11.6561C20.4747 11.6561 19.8869 11.6776 19.2208 11.7186ZM41.1518 28.5775H40.2825V20.8619H44.9955V25.9396H44.1262V21.7316H41.1518V28.5775ZM39.6785 28.7514H38.8092V19.7793L35.4363 16.5542V28.0857H34.567V14.5184L39.6785 19.4075V28.7514Z" fill="#2C2C2C"/>
<path d="M36.8494 28.4939H35.9801V20.0351H33.0061V26.6906H32.1368V19.1654H36.849L36.8494 28.4939ZM37.9516 28.4939H37.0823V23.3324H42.1295V28.2508H41.2602V24.2016H37.9516V28.4939Z" fill="#2C2C2C"/>
<path d="M33.3982 25.8958C31.94 24.164 31.2122 22.0363 31.2122 19.5146C31.2122 17.3064 31.783 15.5513 32.9203 14.2492C34.0605 12.946 35.5989 12.2939 37.5332 12.2939C39.7877 12.2939 41.6715 13.124 43.1809 14.7862C44.6926 16.4473 45.4478 18.5204 45.4478 21.0127C45.4478 23.1777 44.8179 24.9652 43.5557 26.3775C43.0564 26.9367 42.5043 27.3849 41.8988 27.7225C40.9768 28.2365 39.9318 28.4939 38.7622 28.4939C36.6428 28.4939 34.8538 27.6284 33.3982 25.8958ZM34.6528 12.1885C33.4516 12.6585 32.4582 13.2937 31.6724 14.0938C30.9318 14.8524 30.3433 15.7974 29.9049 16.9267C29.4664 18.056 29.2467 19.1936 29.2467 20.3448C29.2467 22.9929 30.0806 25.1342 31.7435 26.7704C33.4069 28.4025 35.5872 29.2202 38.2783 29.2202C40.9057 29.2202 43.0631 28.3671 44.7464 26.6571C46.4297 24.9471 47.2737 22.7611 47.2737 20.0938C47.2737 17.5766 46.4357 15.514 44.7652 13.9004C43.0947 12.2867 40.9524 11.4814 38.3422 11.4814C37.0827 11.4814 35.8529 11.7166 34.6528 12.1885ZM6.75575 11.7095L4.42974 11.8423C4.08729 11.8423 3.65265 11.8062 3.12844 11.7317C2.8605 11.691 2.64939 11.6692 2.49134 11.6692C2.17335 11.6692 2.00965 11.767 2.00363 11.9623C1.99498 12.1174 2.10147 12.2039 2.32839 12.2201C3.16118 12.3112 3.68125 12.5878 3.89161 13.051C4.10197 13.5143 4.20546 14.6203 4.20546 16.372V23.9563C4.20546 25.6057 4.08579 26.7474 3.84871 27.38C3.61013 28.016 3.16607 28.3795 2.51542 28.4819C2.23958 28.5218 2.10147 28.6204 2.10147 28.7758C2.10147 28.9376 2.21173 29.0181 2.42812 29.0181C2.57751 29.0181 2.81572 28.997 3.14161 28.9575C3.39224 28.9244 3.76216 28.9071 4.254 28.9071L5.22866 28.8932L6.11827 28.921L7.41845 28.9436L8.25726 28.997C8.56508 28.997 8.71147 28.8883 8.69642 28.6772C8.68851 28.5285 8.55718 28.4552 8.30731 28.4552C8.07399 28.4552 7.7274 28.3938 7.26792 28.2681C6.60937 28.1014 6.23531 27.5121 6.14273 26.4998L6.10548 25.4518L6.11827 24.2374V13.7973L6.13069 13.4345C6.13069 13.0819 6.19278 12.8463 6.31847 12.7195C6.44266 12.5946 6.67221 12.5332 7.00375 12.5332C8.46084 12.5332 9.66317 12.946 10.6126 13.7736C11.5594 14.6022 12.0351 15.6491 12.0351 16.9128C12.0351 18.0075 11.675 18.8869 10.9551 19.5466C10.2352 20.2063 9.2767 20.5401 8.07813 20.5401C7.6544 20.5401 7.34657 20.5081 7.15503 20.4509C7.07351 20.4293 6.98982 20.4169 6.90553 20.414C6.76516 20.414 6.68388 20.4637 6.66845 20.5623C6.65114 20.6925 6.86112 20.8144 7.30028 20.9285C7.73681 21.044 8.21887 21.1004 8.74534 21.1004C9.86224 21.1004 10.9223 20.7505 11.9222 20.0494C13.2559 19.109 13.9242 17.8193 13.9242 16.1831C13.9242 14.834 13.3778 13.7397 12.2929 12.9009C11.2038 12.0636 9.78811 11.6432 8.04426 11.6432C7.71047 11.6432 7.28222 11.6658 6.75575 11.7095ZM92.9612 11.8201C92.677 11.8201 92.493 11.8803 92.4035 11.9992C92.3177 12.1211 92.2725 12.3725 92.2725 12.7545C92.2725 13.1451 92.2104 13.6392 92.0855 14.2391C91.9831 14.7042 91.935 15.0203 91.935 15.1964C91.935 15.4132 92.0102 15.5276 92.1596 15.5358C92.3113 15.5419 92.4223 15.3838 92.4998 15.0579C92.6643 14.3079 92.901 13.7988 93.2054 13.5274C93.5102 13.2546 93.9987 13.1188 94.676 13.1188H97.9903C98.3056 13.1188 98.5096 13.1613 98.5954 13.2463C98.6819 13.3287 98.7271 13.5192 98.7271 13.8221L98.7391 14.1499V26.566C98.7391 27.2652 98.6277 27.7514 98.4016 28.0239C98.1754 28.2963 97.7445 28.4736 97.1025 28.5568C96.8263 28.5895 96.6886 28.67 96.6886 28.8017C96.6886 28.9809 96.8128 29.0701 97.0638 29.0701C97.1473 29.0701 97.428 29.0445 97.9033 28.997C98.1468 28.9707 98.4437 28.9575 98.7944 28.9575L99.7717 28.944L100.686 28.9575L101.814 28.997L102.428 29.0701C102.664 29.0701 102.781 28.9809 102.781 28.8017C102.781 28.6602 102.633 28.5684 102.343 28.518C101.292 28.3336 100.744 27.7552 100.704 26.7783L100.691 26.2868V14.0114C100.691 13.617 100.74 13.3713 100.835 13.2693C100.932 13.1699 101.163 13.1188 101.529 13.1188H105.045C105.747 13.1188 106.215 13.2091 106.458 13.3897C106.7 13.5703 106.875 13.9523 106.985 14.545C107.035 14.8126 107.134 14.9416 107.286 14.9349C107.467 14.9168 107.555 14.7836 107.548 14.536L107.472 13.9237C107.43 13.6994 107.409 13.3415 107.409 12.8535C107.409 12.3654 107.363 12.0681 107.264 11.9669C107.167 11.8668 106.892 11.8201 106.432 11.8201H92.9615H92.9612ZM81.4211 19.8932C81.3168 19.7901 81.2649 19.5402 81.2649 19.147V14.0505L81.2513 13.6388C81.2513 13.2095 81.3469 12.9167 81.5328 12.7534C81.7236 12.5897 82.0634 12.5069 82.5553 12.5069C83.8773 12.5069 84.9629 12.8997 85.8168 13.6795C86.668 14.4633 87.0944 15.4613 87.0944 16.6734C87.0944 17.7181 86.7817 18.5437 86.1544 19.147C85.5274 19.7479 84.6653 20.049 83.5717 20.049H82.1545C81.7707 20.049 81.5272 19.9982 81.4211 19.8932ZM81.3529 11.7189L79.3889 11.8062C78.9468 11.8062 78.5772 11.7945 78.275 11.7678L77.3994 11.7189C77.1167 11.7189 76.9741 11.8047 76.9741 11.9759C76.9741 12.1227 77.1088 12.2205 77.3749 12.2679L77.962 12.3567C78.8696 12.5069 79.3253 13.235 79.3253 14.5371L79.3517 15.8384V24.835C79.3517 26.2492 79.2463 27.1922 79.0371 27.6735C78.8301 28.1522 78.3913 28.4548 77.7256 28.579C77.516 28.6226 77.4114 28.7039 77.4114 28.8258C77.4114 28.997 77.516 29.0825 77.7256 29.0825C77.8494 29.0825 78.0741 29.0644 78.3992 29.0309L79.4262 28.9707L80.0772 28.9572L81.2769 28.9707L82.8657 29.0264L83.6033 29.0825C83.895 29.0825 84.0312 28.9997 84.0165 28.839C84.009 28.6813 83.8547 28.5895 83.5536 28.5568C82.8033 28.4819 82.2486 28.3009 81.8911 28.0167C81.622 27.8056 81.4553 27.5712 81.383 27.3081C81.3134 27.0458 81.2769 26.5525 81.2769 25.8315L81.2649 25.3325V21.4162C81.2649 21.2035 81.3138 21.0737 81.4146 21.0124L81.6897 20.965H83.3527C83.8043 20.965 84.1301 21.1332 84.3292 21.4756L84.5038 21.7522L87.6186 26.5051C88.2369 27.4383 88.8435 28.1101 89.4381 28.5263C90.0361 28.9376 90.7104 29.1434 91.4593 29.1434C91.9176 29.1434 92.3293 29.0908 92.6925 28.9914C93.0549 28.8883 93.2393 28.7754 93.2475 28.6467C93.2558 28.5368 93.1873 28.4774 93.0346 28.4683L92.6353 28.4442C91.7359 28.3878 90.7507 27.5749 89.6823 26.0117L89.2834 25.4111L85.8319 20.3211C87.8903 19.2952 88.9207 17.8423 88.9207 15.9656C88.9207 14.5356 88.433 13.4601 87.4564 12.7409C86.4799 12.0173 85.0356 11.656 83.116 11.656C82.5278 11.6589 81.9398 11.6797 81.3529 11.7185M108.184 11.9194C108.184 12.0681 108.306 12.1433 108.549 12.1433C108.98 12.1433 109.417 12.2675 109.859 12.514C110.301 12.7605 110.643 13.0785 110.887 13.4706L111.31 14.1608L114.803 19.7111C115.095 20.1713 115.277 20.5254 115.352 20.7745C115.426 21.0267 115.466 21.4173 115.466 21.9539V25.6858L115.451 26.2255C115.451 27.1192 115.358 27.7029 115.171 27.9738C114.985 28.2448 114.54 28.4322 113.838 28.5293C113.563 28.5707 113.427 28.673 113.427 28.8367C113.427 28.9771 113.522 29.0441 113.713 29.0441C113.79 29.0441 113.948 29.0253 114.188 28.988C114.4 28.9594 114.815 28.9459 115.432 28.9459L116.41 28.9207L117.4 28.9703C117.801 28.9967 118.106 29.0177 118.314 29.0441C118.658 29.0855 118.877 29.1069 118.965 29.1069C119.259 29.1069 119.406 29.008 119.406 28.8123C119.406 28.667 119.276 28.5786 119.016 28.5564C118.266 28.4815 117.813 28.3332 117.653 28.1172C117.495 27.8978 117.417 27.3081 117.417 26.338V21.1023C117.417 20.7237 117.575 20.3136 117.892 19.8627L118.191 19.4356L121.23 14.8999L122.044 13.6851C122.538 12.9923 123.154 12.5246 123.897 12.2807C124.105 12.2145 124.209 12.12 124.209 11.9906C124.209 11.8257 124.096 11.7535 123.872 11.7678L123.206 11.8329C122.973 11.8577 122.429 11.8668 121.574 11.8668C120.647 11.8668 120.063 11.851 119.819 11.8122C119.502 11.767 119.281 11.7437 119.155 11.7437C118.971 11.7437 118.877 11.8144 118.867 11.9567C118.857 12.0989 118.96 12.1938 119.166 12.245C120.217 12.4933 120.744 12.8997 120.744 13.4571C120.744 13.7709 120.453 14.3915 119.871 15.318L119.26 16.2907L117.451 19.0363L117.325 19.226C117.241 19.3423 117.155 19.3983 117.065 19.3983C116.989 19.3983 116.914 19.3419 116.838 19.2226L116.675 18.9742L114.045 14.8378L113.692 14.2357C113.33 13.6516 113.149 13.2527 113.149 13.0352C113.149 12.6326 113.429 12.3492 113.989 12.1829C114.179 12.1245 114.275 12.0357 114.275 11.913C114.275 11.7486 114.156 11.6692 113.914 11.6692C113.84 11.6692 113.619 11.688 113.253 11.7268C112.912 11.7629 112.13 11.781 110.906 11.781C110.314 11.781 109.749 11.7486 109.208 11.6857C108.997 11.6579 108.785 11.6435 108.572 11.6428C108.313 11.6428 108.184 11.7358 108.184 11.9198M61.3442 11.9612C61.3442 12.1174 61.4661 12.1942 61.7077 12.1942C62.4675 12.1942 62.9774 12.4019 63.2393 12.8139C63.5012 13.226 63.6337 14.031 63.6337 15.2254V25.8138L63.6205 26.6274C63.6205 27.6284 63.3217 28.2154 62.7211 28.3795L62.2462 28.518C62.0295 28.5782 61.9207 28.6734 61.9207 28.8127C61.9207 28.9914 62.052 29.0825 62.3189 29.0825C62.4374 29.0825 62.6549 29.0524 62.971 28.997C63.5712 28.8932 64.6012 28.8446 66.0606 28.8446C67.103 28.8446 68.4216 28.921 70.0138 29.0701C70.4206 29.1013 70.7476 29.1186 70.9896 29.1186C72.1068 29.1186 73.033 28.67 73.766 27.7733C74.3757 27.0259 74.679 26.3809 74.679 25.8413C74.679 25.6155 74.6018 25.5101 74.4487 25.515C74.3557 25.5233 74.2601 25.5993 74.1664 25.7427C73.2343 27.2171 71.1311 27.9577 67.8582 27.9577C66.826 27.9577 66.1817 27.8704 65.9296 27.6905C65.6737 27.5174 65.5484 27.0741 65.5484 26.364V21.7526L65.5352 21.3405C65.5352 21.0899 65.6041 20.9217 65.7422 20.8393C65.8803 20.7569 66.1513 20.714 66.5596 20.714H69.318C70.033 20.714 70.5402 20.8133 70.8405 21.0124C71.1408 21.2114 71.3407 21.5934 71.4389 22.1515L71.5138 22.5022C71.5491 22.6832 71.6564 22.7754 71.8355 22.7754C71.9955 22.7754 72.0764 22.6731 72.0764 22.4653C72.0764 22.3901 72.067 22.2685 72.0538 22.1044C72.0015 21.6047 71.9785 21.0997 71.9785 20.5924C71.9785 19.929 72.0143 19.1936 72.0892 18.3861C72.0993 18.2619 72.1035 18.1678 72.1035 18.1113C72.1035 17.8938 72.0222 17.7813 71.8592 17.7753C71.6884 17.7655 71.5811 17.8641 71.5401 18.0737C71.4321 18.6243 71.3091 18.9742 71.1777 19.1225C71.0434 19.2745 70.7502 19.3983 70.3024 19.4875C69.7917 19.5891 69.1005 19.6373 68.2259 19.6373H66.2988C65.9398 19.6373 65.7249 19.5986 65.6526 19.5184C65.5834 19.439 65.5484 19.2068 65.5484 18.8203V13.7739C65.5484 13.3321 65.6222 13.0431 65.7731 12.9129C65.9225 12.785 66.2551 12.7191 66.7714 12.7191H68.732C70.0236 12.7191 70.9098 12.7805 71.3907 12.908C71.8747 13.033 72.1949 13.2821 72.3518 13.6584C72.4527 13.9004 72.5024 14.1563 72.5024 14.4201V14.7448C72.5024 15.0045 72.5825 15.1317 72.7447 15.1204C72.89 15.1129 72.9844 15.0489 73.0251 14.9285C73.0683 14.8062 73.1094 14.5047 73.1538 14.0238L73.2027 13.29C73.2445 12.7413 73.2779 12.4083 73.3043 12.2931C73.3276 12.178 73.3419 12.0801 73.3419 12.0041C73.3419 11.7652 73.2027 11.6428 72.9287 11.6428C72.8196 11.6428 72.6533 11.6609 72.4282 11.6937C72.3191 11.7102 72.0188 11.7279 71.5269 11.7441L69.7511 11.8329C68.9665 11.8649 68.0671 11.8818 67.048 11.8818C65.3745 11.8818 63.9385 11.8144 62.7441 11.6794C62.3953 11.6417 62.1145 11.6203 61.9057 11.6203C61.5331 11.6203 61.3442 11.732 61.3442 11.9612ZM4.27959 7.38445C4.19191 7.33553 4.14788 7.25801 4.14788 7.15302V0.462869C4.14788 0.329653 4.17799 0.231434 4.23744 0.168213C4.2969 0.104992 4.39324 0.073758 4.52683 0.073758H6.71474C7.35974 0.073758 7.9276 0.228048 8.41869 0.536627C8.90979 0.845206 9.15515 1.43075 9.15515 2.29327C9.15515 2.89651 9.01328 3.36577 8.72916 3.70258C8.44504 4.03938 8.12592 4.26554 7.77181 4.38107C7.41769 4.4966 7.10046 4.55493 6.81973 4.55493H5.52595V7.15302C5.52595 7.35623 5.34005 7.45784 4.96863 7.45784H4.70558C4.50915 7.45784 4.3669 7.43337 4.27959 7.38445ZM6.7042 3.36615C6.97778 3.36615 7.21975 3.28712 7.43011 3.12907C7.64047 2.97102 7.74547 2.69292 7.74547 2.29327C7.74547 1.90755 7.63633 1.63735 7.41958 1.48306C7.20282 1.32877 6.94617 1.252 6.65151 1.252H5.52595V3.36615H6.70382H6.7042ZM9.5864 7.15302V3.70258C9.5864 3.23293 9.56533 2.88936 9.52318 2.67185L9.45996 2.2722C9.45996 2.17398 9.57587 2.09834 9.8073 2.04603C10.0387 1.99372 10.2453 1.96701 10.4278 1.96701C10.54 1.96701 10.6205 2.01593 10.6698 2.11414C10.7191 2.21236 10.7556 2.31585 10.7801 2.42461L10.8275 2.65077C11.15 2.12468 11.5391 1.86201 11.9952 1.86201C12.2123 1.86201 12.3685 1.91282 12.4633 2.01442C12.5582 2.11603 12.6052 2.23381 12.6052 2.36665C12.6052 2.50702 12.577 2.67185 12.5213 2.86113C12.4656 3.05042 12.3949 3.14525 12.3106 3.14525C12.2756 3.14525 12.2071 3.12945 12.1055 3.09784C12.0039 3.06622 11.9004 3.05042 11.7954 3.05042C11.5918 3.05042 11.4097 3.11703 11.2482 3.25024C11.0868 3.38346 10.975 3.50614 10.9118 3.61866V7.15302C10.9118 7.35623 10.7225 7.45784 10.3436 7.45784H10.1441C9.77193 7.45784 9.5864 7.35623 9.5864 7.15302ZM13.0786 6.78498C12.6507 6.30104 12.437 5.60335 12.437 4.69153C12.437 3.77295 12.6507 3.07149 13.0786 2.58793C13.5065 2.10436 14.1304 1.86164 14.9508 1.86164C15.7644 1.86164 16.3831 2.10398 16.8075 2.58793C17.232 3.07187 17.4435 3.77295 17.4435 4.69153C17.4435 5.61012 17.2316 6.30969 16.8075 6.79025C16.3834 7.27081 15.7644 7.51052 14.9508 7.51052C14.1304 7.51052 13.5061 7.26855 13.0786 6.78498ZM15.808 6.01165C15.9939 5.72076 16.0865 5.27708 16.0865 4.681C16.0865 4.09206 15.9939 3.65177 15.808 3.36088C15.6221 3.06999 15.3331 2.92435 14.9403 2.92435C14.5474 2.92435 14.2569 3.06999 14.0672 3.36088C13.8775 3.65177 13.7835 4.09206 13.7835 4.681C13.7835 5.27708 13.8779 5.72076 14.0672 6.01165C14.2565 6.30254 14.5478 6.44818 14.9403 6.44818C15.3328 6.44818 15.6221 6.30254 15.808 6.01165ZM18.1224 9.54075C18.0347 9.49183 17.9907 9.4143 17.9907 9.30931V3.70295C17.9907 3.23331 17.97 2.88973 17.9278 2.67222L17.8646 2.27257C17.8646 2.17436 17.9805 2.09872 18.212 2.04641C18.4434 1.9941 18.6466 1.96738 18.8216 1.96738C18.9409 1.96738 19.0248 2.0163 19.0741 2.11452C19.1234 2.21274 19.1599 2.31623 19.1847 2.42498L19.2321 2.65115C19.4071 2.40579 19.6228 2.21312 19.879 2.07275C20.1353 1.93238 20.4172 1.86201 20.7257 1.86201C21.1254 1.86201 21.4761 1.97641 21.7775 2.20408C22.079 2.43176 22.3119 2.7599 22.4775 3.18777C22.6431 3.61565 22.7244 4.11728 22.7244 4.69191C22.7244 5.56873 22.5298 6.25739 22.1403 6.75864C21.7508 7.25989 21.2165 7.51127 20.5365 7.51127C20.0736 7.51127 19.6634 7.37768 19.3059 7.11125V9.30969C19.3059 9.5129 19.1196 9.6145 18.7482 9.6145H18.5484C18.3519 9.6145 18.2097 9.59004 18.122 9.54112L18.1224 9.54075ZM21.3674 4.71261C21.3674 4.1376 21.2831 3.70107 21.1152 3.40303C20.9474 3.10499 20.6975 2.95596 20.3682 2.95596C20.1647 2.95596 19.9735 3.01542 19.7947 3.13471C19.616 3.25401 19.453 3.41507 19.3055 3.61866V6.14299C19.5789 6.33714 19.9065 6.44024 20.2418 6.43764C20.9922 6.43764 21.3674 5.86263 21.3674 4.71261ZM23.8499 6.78987C23.4081 6.30969 23.1872 5.62066 23.1872 4.72315C23.1872 3.75526 23.4062 3.0365 23.8447 2.56685C24.2831 2.09721 24.9017 1.86201 25.701 1.86201C26.4585 1.86201 27.0211 2.10737 27.3896 2.59809C27.758 3.0888 27.9416 3.75187 27.9416 4.58617C27.9416 4.66369 27.8788 4.77432 27.7523 4.91732C27.6259 5.06032 27.5314 5.13333 27.4682 5.13333H24.5653C24.6003 5.5962 24.7282 5.93112 24.9491 6.13809C25.17 6.34507 25.491 6.44818 25.9118 6.44818C26.2903 6.44818 26.6757 6.35034 27.0686 6.15352C27.1807 6.1046 27.2511 6.08014 27.2793 6.08014C27.37 6.08014 27.4738 6.17309 27.5894 6.35862C27.7049 6.54414 27.7629 6.68676 27.7629 6.78498C27.7629 6.9182 27.6613 7.04088 27.458 7.15302C27.2548 7.26516 27.0038 7.35247 26.7058 7.41606C26.4077 7.47966 26.1289 7.51052 25.8696 7.51052C24.9649 7.51052 24.2917 7.27043 23.8499 6.79025V6.78987ZM26.6271 4.19705C26.6271 3.79741 26.5481 3.48544 26.3901 3.26078C26.232 3.03612 25.9991 2.92435 25.6909 2.92435C25.0387 2.92435 24.6635 3.34884 24.5653 4.19705H26.6271ZM28.4888 7.15302V3.70258C28.4888 3.23293 28.4677 2.88936 28.4256 2.67185L28.3623 2.2722C28.3623 2.17398 28.4782 2.09834 28.7097 2.04603C28.9411 1.99372 29.1477 1.96701 29.3302 1.96701C29.442 1.96701 29.5229 2.01593 29.5722 2.11414C29.6215 2.21236 29.658 2.31585 29.6824 2.42461L29.7299 2.65077C30.0524 2.12468 30.4415 1.86201 30.8976 1.86201C31.1147 1.86201 31.2709 1.91282 31.3657 2.01442C31.4605 2.11603 31.5076 2.23381 31.5076 2.36665C31.5076 2.50702 31.4794 2.67185 31.4233 2.86113C31.3672 3.05042 31.2972 3.14525 31.2129 3.14525C31.1779 3.14525 31.1094 3.12945 31.0078 3.09784C30.9062 3.06622 30.8027 3.05042 30.6978 3.05042C30.4942 3.05042 30.3116 3.11703 30.1506 3.25024C29.9895 3.38346 29.877 3.50614 29.8142 3.61866V7.15302C29.8142 7.35623 29.6245 7.45784 29.2459 7.45784H29.0461C28.6743 7.45784 28.4888 7.35623 28.4888 7.15302ZM32.7434 7.12141C32.4736 6.86175 32.3385 6.45533 32.3385 5.90101V2.99811H32.0544C31.9565 2.99811 31.8843 2.96311 31.8391 2.89274C31.794 2.82237 31.7706 2.70684 31.7706 2.54578V2.38773C31.7706 2.22666 31.7932 2.11076 31.8391 2.04076C31.885 1.97077 31.9562 1.93539 32.0544 1.93539H32.3385L32.4755 0.904288C32.5101 0.701077 32.6715 0.599472 32.9594 0.599472H33.2115C33.513 0.599472 33.6639 0.701077 33.6639 0.904288V1.93539H34.3055C34.4037 1.93539 34.4756 1.97077 34.5215 2.04076C34.5674 2.11076 34.5896 2.22666 34.5896 2.38773V2.54578C34.5896 2.70684 34.567 2.82275 34.5215 2.89274C34.476 2.96274 34.4037 2.99811 34.3055 2.99811H33.6639V5.88032C33.6639 6.09068 33.7008 6.23782 33.7745 6.32174C33.8483 6.40565 33.9585 6.44818 34.1057 6.44818C34.1757 6.44818 34.2426 6.44141 34.3055 6.42711C34.3683 6.41281 34.4176 6.40603 34.453 6.40603C34.5369 6.40603 34.6073 6.49559 34.6634 6.67435C34.7194 6.8531 34.7473 6.98443 34.7473 7.06872C34.7473 7.36338 34.4387 7.51052 33.8216 7.51052C33.373 7.51052 33.0136 7.38069 32.7434 7.12141ZM39.7752 2.12468C39.7752 2.16683 39.7651 2.22629 39.744 2.30381L37.2298 9.39361C37.1734 9.54037 36.9879 9.6145 36.6721 9.6145H36.5039C36.3286 9.6145 36.1954 9.59494 36.1043 9.55655C36.0132 9.51817 35.9677 9.46699 35.9677 9.40377C35.9677 9.362 35.985 9.30216 36.0204 9.22502L36.7564 7.3107L34.9787 2.30343C34.9716 2.28236 34.9644 2.25602 34.9576 2.22441C34.9509 2.19279 34.9471 2.16006 34.9471 2.12468C34.9471 1.98469 35.1402 1.91432 35.5259 1.91432H35.7679C36.0764 1.91432 36.2552 1.98093 36.3041 2.11414L37.0827 4.37581C37.1595 4.62154 37.2615 5.02119 37.3875 5.57513H37.4191L37.514 5.19617L37.7349 4.37581L38.5025 2.11414C38.5515 1.98093 38.7306 1.9147 39.0392 1.9147H39.2179C39.5897 1.9147 39.7752 1.98469 39.7752 2.12468ZM45.8339 3.53963C45.8972 3.59946 45.9288 3.6958 45.9288 3.82902V6.71122C45.9288 7.01265 45.6797 7.22113 45.1822 7.33704C44.6847 7.45294 44.1266 7.51052 43.5094 7.51052C42.3733 7.51052 41.5247 7.2057 40.964 6.59532C40.4033 5.98493 40.1222 5.04226 40.1222 3.7658C40.1222 1.25539 41.2828 0 43.6043 0C43.9268 0 44.2579 0.0316106 44.5981 0.0948317C44.9383 0.158053 45.219 0.243853 45.4399 0.352232C45.6608 0.460611 45.7711 0.578398 45.7711 0.70484C45.7711 0.789135 45.7376 0.899396 45.6714 1.036C45.6051 1.1726 45.5257 1.29378 45.4343 1.39914C45.3428 1.50451 45.2627 1.55682 45.1927 1.55682C45.1716 1.55682 45.0855 1.52182 44.9349 1.45145C44.7844 1.38108 44.5947 1.31861 44.3667 1.26254C44.1386 1.20647 43.8775 1.17825 43.5832 1.17825C42.8746 1.17825 42.3575 1.39237 42.0316 1.81987C41.7058 2.24736 41.5424 2.88597 41.5424 3.73419C41.5424 5.46637 42.2051 6.33265 43.5305 6.33265C43.888 6.33265 44.2248 6.30104 44.5402 6.23782V4.62831H43.5094C43.4112 4.62831 43.3393 4.59332 43.2938 4.52294C43.2483 4.45257 43.2253 4.33742 43.2253 4.17598V3.90278C43.2253 3.74134 43.2479 3.62581 43.2938 3.55544C43.3397 3.48506 43.4112 3.45007 43.5094 3.45007H45.5397C45.6729 3.45007 45.7707 3.48017 45.8339 3.53963ZM46.6758 5.80656V2.21951C46.6758 2.11414 46.7194 2.03738 46.8075 1.98808C46.8955 1.93878 47.037 1.91432 47.2331 1.91432H47.4329C47.8047 1.91432 47.9906 2.01593 47.9906 2.21951V5.62743C47.9906 6.14675 48.2533 6.40641 48.7794 6.40641C48.9826 6.40641 49.1738 6.34281 49.3525 6.21674C49.5312 6.09068 49.6769 5.93639 49.789 5.75388V2.21951C49.789 2.0163 49.9749 1.9147 50.3467 1.9147H50.5571C50.9289 1.9147 51.1148 2.0163 51.1148 2.21951V5.69103C51.1148 6.16782 51.1355 6.51667 51.1776 6.73719L51.2409 7.14248C51.2409 7.24032 51.125 7.31596 50.8935 7.36827C50.6621 7.42058 50.4555 7.4473 50.273 7.4473C50.1608 7.4473 50.0803 7.3965 50.031 7.29489C49.9817 7.19328 49.9452 7.08302 49.9207 6.96373L49.8733 6.72138C49.684 6.95282 49.4473 7.14248 49.1632 7.28962C48.8791 7.43676 48.5829 7.51052 48.2744 7.51052C47.2083 7.51052 46.6758 6.94228 46.6758 5.80656ZM51.9246 7.15302V3.70258C51.9246 3.23293 51.9035 2.88936 51.8614 2.67185L51.7982 2.2722C51.7982 2.17398 51.9141 2.09834 52.1455 2.04603C52.377 1.99372 52.5836 1.96701 52.7664 1.96701C52.8782 1.96701 52.9591 2.01593 53.008 2.11414C53.057 2.21236 53.0938 2.31585 53.1187 2.42461L53.1657 2.65077C53.4886 2.12468 53.8777 1.86201 54.3334 1.86201C54.5506 1.86201 54.7067 1.91282 54.8016 2.01442C54.8964 2.11603 54.9438 2.23381 54.9438 2.36665C54.9438 2.50702 54.9156 2.67185 54.8595 2.86113C54.8034 3.05042 54.7331 3.14525 54.6488 3.14525C54.6138 3.14525 54.5453 3.12945 54.4441 3.09784C54.3428 3.06622 54.239 3.05042 54.1336 3.05042C53.9304 3.05042 53.7479 3.11703 53.5868 3.25024C53.4258 3.38346 53.3132 3.50614 53.25 3.61866V7.15302C53.25 7.35623 53.0607 7.45784 52.6818 7.45784H52.4823C52.1105 7.45784 51.9246 7.35623 51.9246 7.15302ZM55.2802 5.80656V2.21951C55.2802 2.11414 55.3239 2.03738 55.4116 1.98808C55.4993 1.93878 55.6411 1.91432 55.8376 1.91432H56.0374C56.4092 1.91432 56.5951 2.01593 56.5951 2.21951V5.62743C56.5951 6.14675 56.8578 6.40641 57.3838 6.40641C57.5871 6.40641 57.7782 6.34281 57.957 6.21674C58.1357 6.09068 58.2814 5.93639 58.3935 5.75388V2.21951C58.3935 2.0163 58.5794 1.9147 58.9512 1.9147H59.1616C59.5334 1.9147 59.7193 2.0163 59.7193 2.21951V5.69103C59.7193 6.16782 59.74 6.51667 59.7821 6.73719L59.8453 7.14248C59.8453 7.24032 59.7294 7.31596 59.498 7.36827C59.2666 7.42058 59.0596 7.4473 58.8774 7.4473C58.7653 7.4473 58.6844 7.3965 58.6355 7.29489C58.5866 7.19328 58.5497 7.08302 58.5252 6.96373L58.4778 6.72138C58.2885 6.95282 58.0518 7.14248 57.7677 7.28962C57.4836 7.43676 57.1874 7.51052 56.8788 7.51052C55.8127 7.51052 55.2799 6.94228 55.2799 5.80656H55.2802Z" fill="#2C2C2C"/>
</g>
<defs>
<clipPath id="clip0_31699_7516">
<rect width="124.6" height="56" fill="white" transform="translate(0.700012)"/>
</clipPath>
</defs>
</svg>
